<svg xmlns="http://www.w3.org/2000/svg" xmlns:xlink="http://www.w3.org/1999/xlink" width="500" zoomAndPan="magnify" viewBox="0 0 375 374.999991" height="500" preserveAspectRatio="xMidYMid meet" version="1.0"><defs><filter x="0%" y="0%" width="100%" height="100%" id="9c8e7b0859"><feColorMatrix values="0 0 0 0 1 0 0 0 0 1 0 0 0 0 1 0 0 0 1 0" color-interpolation-filters="sRGB"/></filter><g/><mask id="3afae690d9"><g filter="url(#9c8e7b0859)"><rect x="-37.5" width="450" fill="#000000" y="-37.499999" height="449.999989" fill-opacity="0.25"/></g></mask><clipPath id="72180e3cd8"><path d="M 20 29 L 115 29 L 115 102 L 20 102 Z M 20 29 " clip-rule="nonzero"/></clipPath><clipPath id="40b2ff2eae"><path d="M 132.652344 85.152344 L 35.484375 124.945312 L 0.804688 40.269531 L 97.972656 0.476562 Z M 132.652344 85.152344 " clip-rule="nonzero"/></clipPath><clipPath id="98e7a77d32"><path d="M 132.652344 85.152344 L 35.484375 124.945312 L 0.804688 40.269531 L 97.972656 0.476562 Z M 132.652344 85.152344 " clip-rule="nonzero"/></clipPath><clipPath id="d1d6490f64"><path d="M 132.652344 85.152344 L 35.484375 124.945312 L 0.804688 40.269531 L 97.972656 0.476562 Z M 132.652344 85.152344 " clip-rule="nonzero"/></clipPath><clipPath id="7ec63254aa"><rect x="0" width="133" y="0" height="125"/></clipPath><clipPath id="59a1821f7a"><path d="M 186 104 L 218.351562 104 L 218.351562 135.867188 L 186 135.867188 Z M 186 104 " clip-rule="nonzero"/></clipPath><clipPath id="ccbe37d0fe"><path d="M 203 101.367188 L 211 101.367188 L 211 115 L 203 115 Z M 203 101.367188 " clip-rule="nonzero"/></clipPath></defs><g mask="url(#3afae690d9)"><g transform="matrix(1, 0, 0, 1, 114, 86)"><g clip-path="url(#7ec63254aa)"><g clip-path="url(#72180e3cd8)"><g clip-path="url(#40b2ff2eae)"><g clip-path="url(#98e7a77d32)"><g clip-path="url(#d1d6490f64)"><path fill="#76cccf" d="M 55.855469 98.660156 C 38.074219 92.214844 4.609375 49.378906 30.042969 32.605469 C 47.246094 21.253906 49.988281 39.429688 73.574219 53.664062 C 81.390625 58.371094 119.613281 53.5 114 77.738281 C 110.671875 92.105469 79.105469 107.082031 55.855469 98.660156 Z M 55.855469 98.660156 " fill-opacity="1" fill-rule="nonzero"/></g></g></g></g></g></g></g><g clip-path="url(#59a1821f7a)"><path fill="#336b87" d="M 211.609375 107.246094 C 211.503906 107.160156 211.414062 107.175781 211.332031 107.28125 C 211.253906 107.390625 211.265625 107.480469 211.378906 107.558594 C 215.285156 110.464844 217.554688 114.933594 217.617188 119.824219 C 217.636719 121.445312 217.40625 123.03125 216.933594 124.582031 C 216.632812 124.964844 216.332031 125.347656 216.023438 125.722656 C 215.671875 126.15625 215.304688 126.570312 214.910156 126.964844 C 214.820312 127.054688 214.730469 127.136719 214.636719 127.21875 C 214.59375 127.257812 214.546875 127.296875 214.503906 127.335938 L 214.4375 127.386719 L 214.410156 127.410156 C 214.433594 127.394531 214.40625 127.410156 214.398438 127.417969 C 214.175781 127.585938 213.933594 127.734375 213.703125 127.894531 C 213.453125 128.0625 213.226562 128.253906 213.023438 128.480469 C 212.832031 128.707031 212.695312 128.960938 212.617188 129.25 C 212.460938 129.828125 212.542969 130.375 212.859375 130.882812 C 212.898438 130.945312 212.945312 131.003906 212.988281 131.058594 C 211.546875 132.492188 209.882812 133.59375 208.003906 134.367188 C 206.125 135.136719 204.167969 135.523438 202.136719 135.523438 L 202.109375 135.523438 C 200.097656 135.53125 198.164062 135.160156 196.296875 134.410156 C 194.433594 133.660156 192.777344 132.589844 191.335938 131.191406 C 191.574219 130.777344 191.699219 130.328125 191.707031 129.847656 C 191.71875 129.367188 191.613281 128.914062 191.390625 128.488281 C 191.171875 128.070312 190.832031 127.757812 190.507812 127.429688 C 190.425781 127.351562 190.351562 127.269531 190.28125 127.1875 L 190.230469 127.128906 L 190.226562 127.121094 C 190.21875 127.113281 190.214844 127.105469 190.207031 127.09375 C 190.175781 127.054688 190.144531 127.007812 190.117188 126.964844 C 190.089844 126.921875 190.066406 126.878906 190.046875 126.832031 L 190.027344 126.796875 C 190.019531 126.773438 190.007812 126.746094 190 126.722656 C 189.984375 126.671875 189.972656 126.625 189.964844 126.578125 C 189.964844 126.566406 189.960938 126.554688 189.957031 126.542969 L 189.957031 126.53125 C 189.957031 126.507812 189.957031 126.480469 189.953125 126.453125 C 189.953125 126.410156 189.953125 126.371094 189.960938 126.328125 C 189.960938 126.328125 189.960938 126.332031 189.960938 126.332031 C 189.960938 126.320312 189.964844 126.3125 189.964844 126.300781 C 189.964844 126.277344 189.972656 126.253906 189.980469 126.234375 C 189.988281 126.195312 190 126.152344 190.015625 126.113281 C 190.019531 126.09375 190.027344 126.074219 190.035156 126.054688 L 190.046875 126.023438 C 190.125 125.863281 190.21875 125.707031 190.328125 125.566406 C 190.335938 125.554688 190.34375 125.546875 190.351562 125.535156 L 190.390625 125.484375 L 190.484375 125.371094 C 190.542969 125.296875 190.605469 125.226562 190.664062 125.152344 C 190.789062 125 190.90625 124.84375 191.011719 124.675781 C 191.21875 124.332031 191.324219 123.921875 191.195312 123.527344 C 191.046875 123.070312 190.644531 122.738281 190.222656 122.53125 C 189.71875 122.300781 189.191406 122.171875 188.636719 122.144531 C 188.074219 122.109375 187.523438 122.175781 186.984375 122.335938 C 186.914062 122.359375 186.847656 122.382812 186.777344 122.40625 C 186.664062 121.648438 186.601562 120.886719 186.597656 120.121094 C 186.582031 118.300781 186.878906 116.535156 187.484375 114.820312 C 187.671875 114.308594 188.027344 113.984375 188.550781 113.84375 C 189.207031 113.660156 189.703125 113.65625 189.941406 113.84375 C 190.070312 113.941406 190.136719 114.105469 190.136719 114.339844 C 190.136719 115.109375 189.785156 115.84375 189.40625 116.625 C 189.03125 117.40625 188.644531 118.222656 188.644531 119.078125 C 188.644531 119.546875 188.6875 120.042969 189.023438 120.179688 C 189.484375 120.371094 190.128906 119.832031 191.957031 118.003906 C 193.015625 116.949219 194.039062 116.710938 194.859375 116.519531 C 195.796875 116.300781 196.609375 116.113281 196.882812 114.808594 C 197.132812 113.625 196.703125 112.488281 196.328125 111.480469 C 195.960938 110.511719 195.617188 109.601562 195.925781 108.8125 C 196.269531 107.945312 196.648438 107.585938 196.96875 107.34375 C 197.316406 107.097656 197.554688 106.769531 197.683594 106.363281 C 197.816406 105.957031 197.8125 105.550781 197.679688 105.148438 C 199.011719 104.753906 200.371094 104.539062 201.761719 104.511719 L 201.769531 104.511719 C 201.929688 104.511719 202.082031 104.503906 202.242188 104.511719 C 202.371094 104.511719 202.4375 104.445312 202.4375 104.3125 C 202.4375 104.183594 202.371094 104.117188 202.242188 104.117188 L 202.066406 104.117188 C 199.867188 104.121094 197.761719 104.558594 195.742188 105.433594 C 193.726562 106.3125 191.964844 107.554688 190.464844 109.160156 C 190.371094 109.257812 190.375 109.347656 190.472656 109.4375 C 190.566406 109.53125 190.660156 109.527344 190.75 109.425781 C 192.574219 107.472656 194.757812 106.082031 197.300781 105.257812 C 197.410156 105.585938 197.414062 105.910156 197.308594 106.238281 C 197.203125 106.5625 197.011719 106.828125 196.734375 107.027344 C 196.363281 107.300781 195.9375 107.707031 195.558594 108.667969 C 195.195312 109.59375 195.5625 110.578125 195.957031 111.617188 C 196.332031 112.617188 196.722656 113.652344 196.496094 114.722656 C 196.273438 115.78125 195.707031 115.914062 194.765625 116.132812 C 193.898438 116.335938 192.8125 116.585938 191.675781 117.722656 C 190.796875 118.605469 189.464844 119.933594 189.171875 119.8125 C 189.148438 119.804688 189.03125 119.722656 189.03125 119.074219 C 189.03125 118.308594 189.382812 117.570312 189.757812 116.789062 C 190.132812 116.011719 190.523438 115.195312 190.523438 114.335938 C 190.523438 113.976562 190.40625 113.703125 190.175781 113.527344 C 189.824219 113.261719 189.242188 113.242188 188.441406 113.464844 C 187.789062 113.644531 187.347656 114.054688 187.117188 114.691406 C 186.90625 115.289062 186.730469 115.898438 186.589844 116.515625 C 186.449219 117.132812 186.34375 117.757812 186.277344 118.390625 C 186.214844 119.023438 186.183594 119.65625 186.195312 120.289062 C 186.207031 120.925781 186.253906 121.554688 186.339844 122.183594 C 186.425781 122.8125 186.550781 123.433594 186.710938 124.046875 C 186.871094 124.664062 187.066406 125.265625 187.300781 125.855469 C 187.53125 126.445312 187.800781 127.019531 188.101562 127.578125 C 188.402344 128.136719 188.734375 128.675781 189.101562 129.195312 C 189.46875 129.710938 189.863281 130.207031 190.289062 130.679688 C 190.714844 131.148438 191.167969 131.59375 191.644531 132.007812 C 192.125 132.425781 192.625 132.8125 193.152344 133.167969 C 193.675781 133.527344 194.21875 133.851562 194.785156 134.140625 C 195.347656 134.433594 195.925781 134.6875 196.523438 134.910156 C 197.117188 135.132812 197.722656 135.320312 198.339844 135.46875 C 198.957031 135.617188 199.578125 135.730469 200.210938 135.804688 C 200.839844 135.878906 201.472656 135.914062 202.105469 135.914062 L 202.136719 135.914062 C 202.660156 135.914062 203.183594 135.886719 203.703125 135.832031 C 204.226562 135.78125 204.742188 135.703125 205.257812 135.597656 C 205.769531 135.496094 206.277344 135.367188 206.78125 135.210938 C 207.28125 135.058594 207.773438 134.878906 208.257812 134.675781 C 208.738281 134.472656 209.210938 134.246094 209.671875 133.996094 C 210.132812 133.75 210.582031 133.476562 211.015625 133.183594 C 211.449219 132.890625 211.871094 132.574219 212.273438 132.238281 C 212.675781 131.90625 213.0625 131.550781 213.429688 131.175781 C 213.796875 130.804688 214.144531 130.414062 214.476562 130.003906 C 214.804688 129.597656 215.113281 129.175781 215.402344 128.738281 C 215.6875 128.296875 215.953125 127.847656 216.199219 127.382812 C 216.441406 126.917969 216.660156 126.441406 216.855469 125.957031 C 217.050781 125.46875 217.222656 124.976562 217.371094 124.472656 C 217.515625 123.96875 217.640625 123.460938 217.734375 122.945312 C 217.832031 122.429688 217.902344 121.910156 217.949219 121.386719 C 217.996094 120.867188 218.015625 120.34375 218.007812 119.816406 C 217.945312 114.804688 215.617188 110.222656 211.609375 107.246094 Z M 186.84375 122.800781 C 187.050781 122.726562 187.265625 122.664062 187.480469 122.617188 C 187.542969 122.605469 187.609375 122.59375 187.671875 122.582031 L 187.777344 122.566406 L 187.78125 122.566406 L 187.851562 122.558594 C 187.984375 122.546875 188.113281 122.535156 188.246094 122.53125 C 188.378906 122.53125 188.519531 122.53125 188.65625 122.542969 C 188.722656 122.546875 188.789062 122.550781 188.851562 122.558594 L 188.929688 122.566406 L 188.960938 122.574219 L 189.011719 122.582031 C 189.277344 122.621094 189.535156 122.6875 189.785156 122.773438 L 189.867188 122.804688 L 189.90625 122.820312 C 189.960938 122.84375 190.011719 122.867188 190.0625 122.894531 C 190.160156 122.945312 190.257812 123 190.347656 123.0625 C 190.367188 123.078125 190.390625 123.089844 190.410156 123.109375 L 190.445312 123.136719 C 190.488281 123.171875 190.53125 123.210938 190.574219 123.253906 C 190.605469 123.285156 190.636719 123.320312 190.667969 123.355469 C 190.660156 123.351562 190.660156 123.347656 190.667969 123.363281 L 190.691406 123.398438 C 190.707031 123.421875 190.722656 123.445312 190.734375 123.46875 C 190.75 123.492188 190.761719 123.515625 190.773438 123.542969 C 190.777344 123.550781 190.785156 123.558594 190.785156 123.566406 C 190.785156 123.570312 190.785156 123.570312 190.785156 123.574219 C 190.8125 123.621094 190.828125 123.675781 190.835938 123.730469 C 190.839844 123.75 190.84375 123.769531 190.847656 123.792969 L 190.847656 123.804688 C 190.847656 123.8125 190.847656 123.824219 190.847656 123.835938 C 190.851562 123.878906 190.851562 123.921875 190.847656 123.964844 C 190.847656 123.984375 190.832031 124.058594 190.847656 123.992188 C 190.84375 124.011719 190.839844 124.03125 190.835938 124.046875 C 190.832031 124.089844 190.824219 124.132812 190.816406 124.175781 C 190.804688 124.210938 190.789062 124.246094 190.777344 124.28125 L 190.765625 124.308594 L 190.734375 124.371094 C 190.691406 124.449219 190.648438 124.523438 190.597656 124.597656 C 190.574219 124.632812 190.546875 124.667969 190.523438 124.699219 C 190.511719 124.71875 190.496094 124.738281 190.484375 124.753906 C 190.476562 124.761719 190.46875 124.773438 190.460938 124.78125 C 190.347656 124.925781 190.226562 125.066406 190.113281 125.210938 C 189.878906 125.5 189.644531 125.820312 189.582031 126.195312 C 189.539062 126.410156 189.554688 126.625 189.621094 126.835938 C 189.703125 127.054688 189.816406 127.25 189.96875 127.425781 C 190.109375 127.59375 190.261719 127.75 190.417969 127.902344 C 190.5 127.980469 190.574219 128.054688 190.648438 128.136719 C 190.683594 128.171875 190.71875 128.210938 190.753906 128.25 L 190.808594 128.3125 L 190.824219 128.335938 L 190.839844 128.355469 C 190.90625 128.445312 190.96875 128.539062 191.023438 128.636719 C 191.046875 128.683594 191.070312 128.730469 191.09375 128.777344 C 191.105469 128.800781 191.117188 128.824219 191.125 128.851562 L 191.148438 128.90625 C 191.1875 129.011719 191.222656 129.121094 191.246094 129.230469 C 191.257812 129.28125 191.269531 129.332031 191.277344 129.382812 C 191.277344 129.410156 191.289062 129.4375 191.289062 129.464844 C 191.289062 129.484375 191.292969 129.503906 191.296875 129.523438 C 191.308594 129.632812 191.3125 129.742188 191.308594 129.855469 C 191.308594 129.910156 191.304688 129.964844 191.300781 130.015625 C 191.300781 130.046875 191.296875 130.074219 191.292969 130.105469 C 191.292969 130.105469 191.292969 130.125 191.292969 130.132812 C 191.292969 130.136719 191.292969 130.148438 191.289062 130.15625 C 191.269531 130.265625 191.246094 130.375 191.214844 130.480469 C 191.199219 130.53125 191.183594 130.585938 191.164062 130.636719 L 191.132812 130.71875 L 191.109375 130.765625 C 191.089844 130.8125 191.066406 130.855469 191.042969 130.902344 C 189.949219 129.796875 189.042969 128.550781 188.328125 127.171875 C 187.613281 125.789062 187.117188 124.332031 186.84375 122.800781 Z M 212.953125 129.546875 Z M 213.0625 130.433594 L 213.070312 130.445312 C 213.066406 130.441406 213.0625 130.4375 213.0625 130.429688 Z M 213.265625 130.78125 L 213.242188 130.746094 C 213.222656 130.722656 213.203125 130.695312 213.1875 130.667969 C 213.152344 130.613281 213.121094 130.554688 213.09375 130.5 L 213.070312 130.453125 C 213.058594 130.417969 213.046875 130.386719 213.035156 130.355469 C 213.015625 130.292969 212.996094 130.230469 212.980469 130.167969 C 212.976562 130.140625 212.96875 130.109375 212.964844 130.082031 C 212.964844 130.066406 212.957031 130.050781 212.957031 130.03125 C 212.953125 130.015625 212.957031 130.019531 212.957031 130.015625 C 212.949219 129.953125 212.945312 129.886719 212.945312 129.824219 C 212.941406 129.757812 212.945312 129.695312 212.949219 129.628906 C 212.949219 129.613281 212.949219 129.597656 212.957031 129.578125 L 212.957031 129.570312 C 212.964844 129.539062 212.972656 129.503906 212.972656 129.46875 C 212.984375 129.40625 213 129.34375 213.019531 129.28125 C 213.027344 129.253906 213.039062 129.226562 213.050781 129.203125 C 213.058594 129.175781 213.0625 129.167969 213.066406 129.152344 C 213.074219 129.136719 213.0625 129.164062 213.0625 129.164062 C 213.066406 129.15625 213.070312 129.148438 213.074219 129.140625 C 213.101562 129.082031 213.128906 129.023438 213.164062 128.96875 C 213.179688 128.941406 213.199219 128.914062 213.214844 128.886719 L 213.242188 128.847656 L 213.261719 128.820312 C 213.347656 128.714844 213.445312 128.613281 213.546875 128.523438 C 213.601562 128.476562 213.65625 128.433594 213.710938 128.386719 L 213.722656 128.378906 L 213.765625 128.34375 L 213.851562 128.28125 C 214.082031 128.121094 214.324219 127.96875 214.554688 127.804688 C 214.75 127.660156 214.933594 127.503906 215.109375 127.335938 C 215.492188 126.960938 215.855469 126.5625 216.195312 126.148438 C 216.316406 126.003906 216.429688 125.859375 216.546875 125.714844 C 215.789062 127.621094 214.695312 129.308594 213.265625 130.78125 Z M 213.265625 130.78125 " fill-opacity="1" fill-rule="nonzero"/></g><path fill="#336b87" d="M 201.550781 116.554688 C 201.667969 116.914062 201.890625 117.1875 202.222656 117.371094 C 202.59375 117.570312 202.980469 117.605469 203.382812 117.476562 C 203.761719 117.363281 204.097656 117.171875 204.394531 116.910156 C 204.460938 116.980469 204.53125 117.050781 204.601562 117.117188 C 204.898438 117.414062 205.253906 117.605469 205.664062 117.699219 C 206.113281 117.785156 206.570312 117.738281 207.023438 117.707031 C 207.433594 117.671875 207.839844 117.691406 208.246094 117.757812 C 209.027344 117.910156 209.757812 118.277344 210.277344 118.882812 C 210.800781 119.484375 211.035156 120.179688 210.980469 120.972656 C 210.964844 121.148438 210.929688 121.316406 210.878906 121.484375 C 210.828125 121.648438 210.761719 121.804688 210.683594 121.953125 C 210.515625 122.265625 210.300781 122.542969 210.042969 122.785156 C 209.78125 123.039062 209.492188 123.253906 209.175781 123.433594 C 208.835938 123.625 208.480469 123.777344 208.109375 123.890625 C 207.230469 124.164062 206.3125 124.261719 205.402344 124.371094 C 204.550781 124.46875 203.695312 124.578125 202.871094 124.828125 C 202.085938 125.070312 201.332031 125.441406 200.734375 126.015625 C 200.113281 126.613281 199.710938 127.402344 199.074219 127.984375 C 198.796875 128.253906 198.472656 128.445312 198.101562 128.5625 C 197.921875 128.617188 197.738281 128.636719 197.554688 128.617188 C 197.535156 128.617188 197.519531 128.617188 197.503906 128.613281 L 197.4375 128.601562 C 197.390625 128.589844 197.34375 128.574219 197.296875 128.558594 C 197.226562 128.527344 197.164062 128.488281 197.105469 128.433594 C 197.078125 128.410156 197.050781 128.378906 197.03125 128.347656 C 197.011719 128.316406 196.996094 128.28125 196.980469 128.246094 C 196.964844 128.203125 196.949219 128.15625 196.941406 128.109375 C 196.929688 128.074219 196.925781 128.035156 196.921875 127.996094 C 196.914062 127.902344 196.914062 127.808594 196.921875 127.714844 C 196.921875 127.695312 196.925781 127.671875 196.929688 127.652344 C 196.929688 127.648438 196.929688 127.625 196.933594 127.617188 C 196.941406 127.578125 196.949219 127.539062 196.957031 127.496094 C 196.976562 127.414062 197 127.332031 197.027344 127.253906 C 197.039062 127.214844 197.054688 127.171875 197.070312 127.136719 C 197.070312 127.132812 197.070312 127.128906 197.070312 127.125 L 197.074219 127.113281 C 197.085938 127.09375 197.09375 127.074219 197.101562 127.054688 C 197.175781 126.902344 197.257812 126.757812 197.351562 126.617188 C 197.398438 126.546875 197.445312 126.476562 197.5 126.410156 C 197.542969 126.351562 197.578125 126.300781 197.640625 126.226562 C 197.75 126.089844 197.867188 125.960938 197.984375 125.824219 C 198.21875 125.558594 198.460938 125.292969 198.679688 125.015625 C 199.175781 124.421875 199.480469 123.742188 199.585938 122.972656 C 199.707031 122.191406 199.671875 121.398438 199.640625 120.613281 C 199.625 120.21875 199.613281 119.828125 199.621094 119.433594 C 199.625 119.242188 199.632812 119.046875 199.652344 118.855469 C 199.667969 118.675781 199.695312 118.5 199.734375 118.320312 C 199.800781 117.96875 199.917969 117.632812 200.082031 117.308594 C 200.144531 117.199219 200.121094 117.109375 200.011719 117.042969 C 199.898438 116.976562 199.808594 117 199.746094 117.113281 C 199.363281 117.835938 199.246094 118.648438 199.230469 119.457031 C 199.214844 120.265625 199.292969 121.074219 199.285156 121.882812 C 199.285156 122.273438 199.253906 122.660156 199.1875 123.046875 C 199.121094 123.421875 198.996094 123.777344 198.820312 124.117188 C 198.480469 124.757812 197.964844 125.246094 197.492188 125.804688 C 197.015625 126.363281 196.59375 126.980469 196.53125 127.730469 C 196.492188 128.160156 196.621094 128.625 197.015625 128.851562 C 197.390625 129.066406 197.878906 129.046875 198.28125 128.914062 C 199.136719 128.632812 199.707031 127.910156 200.230469 127.214844 C 200.488281 126.851562 200.773438 126.515625 201.097656 126.207031 C 201.398438 125.9375 201.734375 125.714844 202.097656 125.542969 C 202.828125 125.183594 203.664062 124.996094 204.476562 124.875 C 205.417969 124.734375 206.371094 124.671875 207.308594 124.488281 C 208.15625 124.320312 208.988281 124.046875 209.707031 123.554688 C 210.351562 123.117188 210.894531 122.523438 211.179688 121.792969 C 211.488281 121.015625 211.417969 120.15625 211.074219 119.40625 C 210.699219 118.617188 210.109375 118.042969 209.3125 117.6875 C 208.90625 117.503906 208.480469 117.386719 208.039062 117.332031 C 207.597656 117.277344 207.164062 117.304688 206.722656 117.335938 C 206.488281 117.355469 206.257812 117.363281 206.027344 117.351562 C 205.921875 117.34375 205.820312 117.332031 205.71875 117.308594 C 205.667969 117.296875 205.621094 117.285156 205.570312 117.269531 L 205.488281 117.242188 L 205.4375 117.21875 C 205.144531 117.078125 204.894531 116.890625 204.683594 116.644531 C 204.933594 116.402344 205.164062 116.144531 205.402344 115.902344 C 205.671875 115.605469 205.984375 115.363281 206.339844 115.171875 C 206.449219 115.105469 206.472656 115.019531 206.410156 114.90625 C 206.34375 114.796875 206.253906 114.773438 206.140625 114.835938 C 205.4375 115.183594 204.976562 115.828125 204.425781 116.363281 C 204.21875 116.113281 203.988281 115.886719 203.734375 115.679688 C 203.441406 115.464844 203.113281 115.332031 202.75 115.289062 C 202.386719 115.234375 202.070312 115.328125 201.800781 115.574219 C 201.519531 115.847656 201.433594 116.175781 201.550781 116.554688 Z M 202.085938 116.746094 C 202.070312 116.726562 202.082031 116.742188 202.085938 116.746094 Z M 201.9375 116.042969 Z M 201.902344 116.175781 C 201.902344 116.1875 201.902344 116.1875 201.902344 116.175781 Z M 201.902344 116.195312 C 201.902344 116.1875 201.902344 116.179688 201.902344 116.171875 C 201.910156 116.140625 201.917969 116.105469 201.925781 116.074219 C 201.925781 116.0625 201.933594 116.054688 201.9375 116.042969 C 201.941406 116.03125 201.953125 116.007812 201.964844 115.992188 L 201.992188 115.945312 L 202.011719 115.917969 C 202.035156 115.890625 202.058594 115.863281 202.085938 115.835938 C 202.09375 115.828125 202.105469 115.820312 202.117188 115.8125 L 202.136719 115.796875 C 202.171875 115.773438 202.203125 115.753906 202.238281 115.738281 C 202.246094 115.738281 202.261719 115.726562 202.265625 115.726562 L 202.300781 115.714844 C 202.335938 115.703125 202.375 115.691406 202.414062 115.683594 L 202.449219 115.679688 L 202.480469 115.679688 C 202.519531 115.675781 202.5625 115.671875 202.601562 115.675781 C 202.636719 115.675781 202.671875 115.675781 202.710938 115.679688 L 202.742188 115.679688 L 202.800781 115.691406 C 202.882812 115.707031 202.960938 115.726562 203.039062 115.753906 C 203.070312 115.765625 203.105469 115.777344 203.136719 115.789062 L 203.175781 115.804688 L 203.238281 115.835938 C 203.3125 115.871094 203.382812 115.914062 203.449219 115.957031 C 203.480469 115.976562 203.507812 116 203.535156 116.019531 L 203.566406 116.042969 L 203.617188 116.085938 C 203.6875 116.148438 203.753906 116.214844 203.820312 116.285156 C 203.925781 116.394531 204.03125 116.507812 204.132812 116.625 C 203.890625 116.832031 203.617188 116.988281 203.3125 117.09375 C 203.132812 117.148438 202.945312 117.167969 202.757812 117.152344 L 202.738281 117.152344 L 202.683594 117.140625 C 202.640625 117.132812 202.597656 117.121094 202.558594 117.105469 L 202.527344 117.09375 L 202.484375 117.074219 C 202.445312 117.054688 202.40625 117.035156 202.371094 117.007812 C 202.339844 116.992188 202.3125 116.972656 202.28125 116.949219 C 202.277344 116.945312 202.253906 116.925781 202.25 116.921875 C 202.234375 116.910156 202.21875 116.894531 202.203125 116.878906 C 202.175781 116.851562 202.148438 116.828125 202.121094 116.796875 C 202.109375 116.78125 202.09375 116.765625 202.082031 116.75 L 202.058594 116.722656 C 202.039062 116.691406 202.019531 116.660156 202 116.628906 C 201.992188 116.609375 201.980469 116.589844 201.972656 116.574219 C 201.972656 116.566406 201.960938 116.542969 201.957031 116.539062 C 201.929688 116.472656 201.910156 116.40625 201.898438 116.335938 C 201.898438 116.328125 201.898438 116.316406 201.898438 116.308594 C 201.898438 116.304688 201.898438 116.277344 201.898438 116.257812 C 201.898438 116.242188 201.898438 116.214844 201.902344 116.195312 Z M 201.902344 116.195312 " fill-opacity="1" fill-rule="nonzero"/><path fill="#336b87" d="M 208.917969 132.304688 C 208.96875 132.304688 209.019531 132.304688 209.070312 132.304688 C 209.113281 132.304688 209.152344 132.308594 209.195312 132.3125 L 209.207031 132.3125 L 209.234375 132.320312 C 209.261719 132.324219 209.285156 132.332031 209.316406 132.339844 C 209.335938 132.34375 209.355469 132.351562 209.375 132.359375 L 209.386719 132.359375 L 209.402344 132.367188 C 209.421875 132.375 209.4375 132.382812 209.457031 132.394531 L 209.480469 132.414062 C 209.496094 132.425781 209.511719 132.441406 209.527344 132.453125 L 209.542969 132.472656 C 209.554688 132.488281 209.5625 132.503906 209.574219 132.519531 C 209.582031 132.539062 209.582031 132.539062 209.585938 132.546875 C 209.585938 132.550781 209.585938 132.550781 209.585938 132.554688 C 209.625 132.675781 209.703125 132.722656 209.828125 132.691406 C 209.953125 132.652344 210 132.574219 209.964844 132.445312 C 209.882812 132.214844 209.726562 132.058594 209.496094 131.976562 C 209.292969 131.90625 209.085938 131.882812 208.871094 131.90625 C 208.65625 131.933594 208.445312 131.976562 208.234375 132.035156 C 208.183594 132.046875 208.132812 132.054688 208.082031 132.066406 C 208.054688 132.070312 208.03125 132.074219 208.003906 132.078125 L 207.972656 132.082031 L 207.945312 132.082031 C 207.84375 132.097656 207.738281 132.105469 207.632812 132.101562 L 207.601562 132.101562 C 207.578125 132.097656 207.554688 132.089844 207.53125 132.085938 C 207.507812 132.078125 207.488281 132.074219 207.464844 132.066406 L 207.453125 132.058594 L 207.445312 132.058594 L 207.425781 132.050781 C 207.40625 132.039062 207.386719 132.027344 207.367188 132.015625 L 207.347656 131.996094 C 207.328125 131.980469 207.3125 131.960938 207.296875 131.945312 L 207.269531 131.902344 C 207.261719 131.886719 207.253906 131.871094 207.246094 131.855469 L 207.246094 131.851562 C 207.234375 131.820312 207.222656 131.792969 207.214844 131.761719 C 207.199219 131.699219 207.1875 131.636719 207.175781 131.574219 C 207.160156 131.453125 207.132812 131.332031 207.09375 131.214844 C 206.929688 130.78125 206.632812 130.480469 206.203125 130.304688 C 205.773438 130.117188 205.332031 130.082031 204.875 130.191406 C 204.355469 130.316406 203.898438 130.613281 203.5 130.964844 C 203.117188 131.304688 202.796875 131.699219 202.460938 132.078125 C 202.292969 132.269531 202.117188 132.449219 201.925781 132.617188 L 201.859375 132.671875 L 201.820312 132.699219 L 201.8125 132.707031 C 201.761719 132.746094 201.707031 132.789062 201.652344 132.820312 C 201.542969 132.890625 201.433594 132.949219 201.316406 133 L 201.308594 133 L 201.300781 133.003906 L 201.253906 133.023438 L 201.148438 133.058594 C 201.082031 133.082031 201.011719 133.097656 200.945312 133.117188 C 200.804688 133.152344 200.660156 133.175781 200.519531 133.195312 C 200.242188 133.234375 199.96875 133.285156 199.695312 133.351562 C 199.242188 133.476562 198.777344 133.726562 198.53125 134.144531 C 198.46875 134.25 198.421875 134.359375 198.394531 134.476562 C 198.363281 134.605469 198.40625 134.683594 198.53125 134.71875 C 198.660156 134.753906 198.738281 134.707031 198.773438 134.582031 C 198.785156 134.535156 198.796875 134.492188 198.816406 134.445312 C 198.816406 134.453125 198.832031 134.40625 198.835938 134.394531 C 198.851562 134.367188 198.867188 134.339844 198.882812 134.316406 C 198.898438 134.292969 198.914062 134.273438 198.925781 134.25 L 198.953125 134.21875 C 198.988281 134.179688 199.027344 134.140625 199.066406 134.101562 C 199.085938 134.085938 199.105469 134.066406 199.125 134.050781 L 199.144531 134.039062 L 199.164062 134.023438 C 199.207031 133.992188 199.257812 133.960938 199.304688 133.933594 C 199.355469 133.902344 199.402344 133.878906 199.449219 133.855469 L 199.515625 133.828125 L 199.53125 133.820312 L 199.582031 133.800781 C 200.082031 133.613281 200.625 133.609375 201.136719 133.46875 C 201.398438 133.398438 201.644531 133.285156 201.871094 133.136719 C 202.082031 132.992188 202.28125 132.828125 202.460938 132.640625 C 202.808594 132.289062 203.105469 131.894531 203.457031 131.539062 C 203.542969 131.445312 203.636719 131.359375 203.730469 131.273438 C 203.773438 131.234375 203.816406 131.195312 203.863281 131.160156 L 203.933594 131.101562 L 203.96875 131.074219 L 203.984375 131.058594 C 204.183594 130.90625 204.394531 130.78125 204.621094 130.679688 L 204.640625 130.667969 L 204.671875 130.65625 L 204.753906 130.625 C 204.8125 130.605469 204.871094 130.585938 204.933594 130.570312 C 204.992188 130.554688 205.039062 130.546875 205.09375 130.535156 C 205.105469 130.535156 205.183594 130.515625 205.128906 130.53125 C 205.15625 130.523438 205.1875 130.519531 205.214844 130.519531 C 205.316406 130.511719 205.414062 130.511719 205.511719 130.519531 L 205.585938 130.527344 L 205.59375 130.527344 L 205.621094 130.53125 C 205.675781 130.542969 205.726562 130.550781 205.785156 130.566406 C 205.839844 130.578125 205.878906 130.59375 205.925781 130.609375 L 205.992188 130.632812 L 206.019531 130.644531 L 206.023438 130.644531 L 206.035156 130.648438 C 206.125 130.6875 206.210938 130.738281 206.292969 130.792969 L 206.339844 130.824219 L 206.378906 130.855469 C 206.417969 130.890625 206.453125 130.925781 206.488281 130.960938 C 206.507812 130.980469 206.523438 130.996094 206.535156 131.015625 L 206.554688 131.035156 C 206.582031 131.074219 206.609375 131.109375 206.632812 131.152344 C 206.652344 131.1875 206.671875 131.226562 206.6875 131.265625 C 206.6875 131.277344 206.703125 131.304688 206.707031 131.3125 C 206.714844 131.339844 206.722656 131.367188 206.730469 131.390625 C 206.765625 131.515625 206.777344 131.644531 206.804688 131.769531 C 206.847656 132.03125 206.984375 132.230469 207.210938 132.371094 C 207.601562 132.59375 208.097656 132.484375 208.511719 132.375 C 208.605469 132.34375 208.707031 132.324219 208.804688 132.316406 C 208.75 132.320312 208.828125 132.316406 208.839844 132.316406 Z M 201.820312 132.679688 Z M 207.230469 131.824219 C 207.226562 131.820312 207.230469 131.820312 207.230469 131.824219 Z M 207.441406 132.050781 L 207.460938 132.058594 C 207.460938 132.058594 207.449219 132.054688 207.441406 132.050781 Z M 207.609375 132.097656 L 207.625 132.097656 C 207.621094 132.097656 207.617188 132.101562 207.609375 132.101562 Z M 207.609375 132.097656 " fill-opacity="1" fill-rule="nonzero"/><path fill="#336b87" d="M 190.351562 125.539062 L 190.347656 125.546875 C 190.339844 125.550781 190.328125 125.574219 190.351562 125.539062 Z M 190.351562 125.539062 " fill-opacity="1" fill-rule="nonzero"/><path fill="#336b87" d="M 190.484375 124.753906 C 190.453125 124.792969 190.476562 124.765625 190.484375 124.753906 Z M 190.484375 124.753906 " fill-opacity="1" fill-rule="nonzero"/><path fill="#336b87" d="M 189.957031 126.324219 C 189.96875 126.277344 189.960938 126.308594 189.957031 126.324219 Z M 189.957031 126.324219 " fill-opacity="1" fill-rule="nonzero"/><path fill="#336b87" d="M 203.859375 104.144531 L 203.863281 104.132812 Z M 203.859375 104.144531 " fill-opacity="1" fill-rule="nonzero"/><g clip-path="url(#ccbe37d0fe)"><path fill="#336b87" d="M 204.890625 110.671875 C 205.476562 111.628906 206.097656 112.558594 206.679688 113.515625 C 206.765625 113.652344 206.847656 113.789062 206.929688 113.925781 C 206.96875 113.988281 207.023438 114.019531 207.097656 114.019531 C 207.171875 114.019531 207.230469 113.988281 207.269531 113.925781 C 207.847656 113.082031 208.371094 112.203125 208.839844 111.292969 C 209.066406 110.871094 209.285156 110.445312 209.511719 110.023438 C 209.742188 109.582031 209.972656 109.148438 210.15625 108.6875 C 210.539062 107.765625 210.769531 106.804688 210.855469 105.808594 C 210.898438 105.332031 210.898438 104.859375 210.855469 104.382812 C 210.820312 103.984375 210.71875 103.601562 210.550781 103.234375 C 210.375 102.882812 210.128906 102.597656 209.804688 102.375 C 209.425781 102.121094 209.007812 101.972656 208.554688 101.929688 C 208.089844 101.878906 207.648438 101.960938 207.238281 102.175781 C 207.035156 102.289062 206.851562 102.425781 206.683594 102.582031 C 206.523438 102.722656 206.378906 102.875 206.246094 103.042969 C 205.699219 103.738281 205.386719 104.617188 205.496094 105.507812 C 205.601562 106.363281 206.050781 107.25 206.847656 107.648438 C 207.21875 107.835938 207.679688 107.933594 208.078125 107.773438 C 208.539062 107.589844 208.78125 107.160156 208.917969 106.707031 C 209.054688 106.253906 209.105469 105.71875 208.941406 105.25 C 208.785156 104.789062 208.480469 104.472656 208.023438 104.304688 C 207.816406 104.230469 207.605469 104.21875 207.390625 104.261719 C 207.261719 104.296875 207.21875 104.378906 207.253906 104.503906 C 207.289062 104.628906 207.371094 104.671875 207.496094 104.640625 C 207.503906 104.640625 207.546875 104.632812 207.542969 104.632812 L 207.601562 104.632812 C 207.644531 104.632812 207.6875 104.636719 207.726562 104.640625 L 207.777344 104.648438 C 207.800781 104.652344 207.820312 104.65625 207.84375 104.664062 L 207.902344 104.683594 L 207.953125 104.703125 C 208.035156 104.738281 208.113281 104.785156 208.1875 104.835938 L 208.222656 104.867188 L 208.269531 104.910156 C 208.308594 104.945312 208.34375 104.984375 208.378906 105.023438 L 208.398438 105.046875 L 208.402344 105.054688 C 208.414062 105.070312 208.425781 105.089844 208.4375 105.105469 C 208.464844 105.148438 208.492188 105.191406 208.515625 105.238281 C 208.535156 105.273438 208.550781 105.3125 208.5625 105.351562 C 208.582031 105.40625 208.597656 105.464844 208.613281 105.519531 C 208.636719 105.617188 208.652344 105.71875 208.652344 105.820312 C 208.65625 105.933594 208.652344 106.046875 208.640625 106.160156 C 208.640625 106.167969 208.640625 106.179688 208.640625 106.191406 C 208.640625 106.191406 208.640625 106.195312 208.640625 106.199219 C 208.632812 106.226562 208.628906 106.253906 208.625 106.28125 C 208.613281 106.335938 208.601562 106.390625 208.589844 106.445312 C 208.5625 106.554688 208.53125 106.65625 208.492188 106.761719 C 208.484375 106.785156 208.472656 106.8125 208.464844 106.835938 L 208.464844 106.839844 L 208.441406 106.875 C 208.417969 106.925781 208.390625 106.972656 208.359375 107.023438 C 208.316406 107.105469 208.261719 107.179688 208.191406 107.246094 C 208.171875 107.261719 208.152344 107.28125 208.132812 107.296875 L 208.128906 107.296875 L 208.105469 107.3125 C 208.066406 107.339844 208.023438 107.367188 207.980469 107.386719 L 207.960938 107.394531 L 207.957031 107.394531 L 207.890625 107.417969 C 207.847656 107.429688 207.800781 107.441406 207.753906 107.449219 L 207.726562 107.449219 C 207.703125 107.449219 207.683594 107.449219 207.660156 107.449219 C 207.609375 107.449219 207.5625 107.449219 207.511719 107.445312 L 207.472656 107.4375 L 207.417969 107.429688 C 207.371094 107.417969 207.324219 107.40625 207.277344 107.394531 C 207.234375 107.382812 207.1875 107.363281 207.140625 107.347656 L 207.132812 107.359375 L 207.109375 107.347656 C 207.085938 107.339844 207.066406 107.328125 207.042969 107.316406 C 206.957031 107.273438 206.871094 107.222656 206.792969 107.167969 L 206.753906 107.136719 L 206.707031 107.097656 C 206.667969 107.066406 206.632812 107.03125 206.597656 106.996094 C 206.527344 106.925781 206.460938 106.851562 206.398438 106.773438 L 206.394531 106.769531 L 206.371094 106.738281 L 206.328125 106.675781 C 206.300781 106.636719 206.273438 106.597656 206.246094 106.550781 C 206.195312 106.464844 206.148438 106.375 206.105469 106.285156 L 206.078125 106.226562 L 206.0625 106.183594 C 206.042969 106.136719 206.023438 106.085938 206.007812 106.035156 C 205.976562 105.9375 205.949219 105.839844 205.925781 105.742188 C 205.917969 105.695312 205.910156 105.648438 205.902344 105.605469 C 205.894531 105.578125 205.894531 105.554688 205.886719 105.527344 C 205.886719 105.511719 205.886719 105.496094 205.882812 105.480469 C 205.871094 105.378906 205.867188 105.277344 205.863281 105.175781 C 205.863281 105.074219 205.867188 104.976562 205.878906 104.875 L 205.886719 104.808594 L 205.886719 104.804688 L 205.890625 104.769531 C 205.898438 104.71875 205.90625 104.667969 205.917969 104.617188 C 205.941406 104.515625 205.964844 104.417969 205.996094 104.320312 C 206.011719 104.277344 206.023438 104.230469 206.042969 104.1875 C 206.050781 104.164062 206.058594 104.140625 206.070312 104.113281 C 206.074219 104.101562 206.078125 104.089844 206.082031 104.078125 L 206.082031 104.0625 C 206.164062 103.875 206.261719 103.699219 206.375 103.527344 C 206.398438 103.488281 206.425781 103.445312 206.453125 103.410156 C 206.46875 103.386719 206.484375 103.367188 206.5 103.347656 L 206.507812 103.335938 L 206.535156 103.304688 C 206.597656 103.222656 206.664062 103.148438 206.738281 103.074219 C 206.808594 103 206.875 102.933594 206.949219 102.867188 C 206.988281 102.832031 207.03125 102.800781 207.066406 102.765625 L 207.125 102.71875 L 207.136719 102.710938 L 207.164062 102.691406 C 207.246094 102.628906 207.335938 102.570312 207.425781 102.519531 C 207.46875 102.496094 207.515625 102.476562 207.558594 102.457031 C 207.566406 102.457031 207.59375 102.441406 207.597656 102.4375 L 207.679688 102.410156 C 207.777344 102.378906 207.878906 102.351562 207.980469 102.335938 L 208.03125 102.328125 C 208.054688 102.324219 208.074219 102.324219 208.097656 102.320312 C 208.148438 102.316406 208.199219 102.3125 208.253906 102.3125 C 208.660156 102.304688 209.042969 102.398438 209.402344 102.589844 C 209.480469 102.632812 209.558594 102.679688 209.636719 102.734375 L 209.679688 102.765625 L 209.707031 102.789062 C 209.742188 102.820312 209.777344 102.847656 209.808594 102.878906 C 209.871094 102.9375 209.925781 103 209.976562 103.0625 C 209.984375 103.070312 209.992188 103.078125 209.996094 103.085938 C 210.007812 103.101562 210.019531 103.117188 210.03125 103.132812 C 210.054688 103.167969 210.082031 103.207031 210.105469 103.246094 C 210.148438 103.316406 210.191406 103.390625 210.226562 103.46875 C 210.234375 103.488281 210.242188 103.507812 210.253906 103.527344 C 210.257812 103.535156 210.257812 103.542969 210.261719 103.546875 C 210.277344 103.589844 210.296875 103.636719 210.308594 103.679688 C 210.367188 103.851562 210.410156 104.023438 210.4375 104.203125 C 210.4375 104.222656 210.445312 104.242188 210.449219 104.265625 C 210.449219 104.269531 210.449219 104.277344 210.449219 104.285156 C 210.449219 104.289062 210.449219 104.292969 210.449219 104.300781 C 210.453125 104.347656 210.460938 104.394531 210.464844 104.441406 C 210.472656 104.542969 210.480469 104.652344 210.484375 104.753906 C 210.492188 104.988281 210.492188 105.226562 210.484375 105.457031 C 210.464844 105.917969 210.410156 106.371094 210.316406 106.820312 C 210.222656 107.28125 210.09375 107.734375 209.933594 108.175781 C 209.78125 108.605469 209.59375 109.023438 209.378906 109.425781 C 209.171875 109.824219 208.957031 110.21875 208.75 110.617188 C 208.304688 111.46875 207.851562 112.316406 207.332031 113.125 C 207.257812 113.238281 207.179688 113.355469 207.101562 113.472656 C 206.5625 112.582031 205.992188 111.710938 205.441406 110.832031 C 205.1875 110.429688 204.945312 110.027344 204.710938 109.617188 C 204.605469 109.421875 204.5 109.226562 204.402344 109.027344 C 204.355469 108.929688 204.308594 108.832031 204.261719 108.734375 L 204.207031 108.605469 L 204.171875 108.53125 L 204.167969 108.515625 C 204.167969 108.511719 204.152344 108.480469 204.148438 108.476562 C 203.988281 108.085938 203.859375 107.6875 203.765625 107.277344 C 203.714844 107.066406 203.671875 106.855469 203.640625 106.640625 L 203.632812 106.570312 C 203.632812 106.570312 203.625 106.527344 203.625 106.519531 C 203.617188 106.460938 203.609375 106.398438 203.605469 106.339844 C 203.59375 106.226562 203.582031 106.113281 203.578125 105.996094 C 203.558594 105.761719 203.558594 105.527344 203.578125 105.292969 C 203.578125 105.238281 203.585938 105.183594 203.59375 105.132812 C 203.59375 105.121094 203.601562 105.082031 203.59375 105.121094 L 203.597656 105.089844 C 203.601562 105.054688 203.609375 105.019531 203.613281 104.984375 C 203.636719 104.871094 203.660156 104.757812 203.691406 104.648438 C 203.722656 104.535156 203.757812 104.425781 203.796875 104.316406 C 203.816406 104.261719 203.835938 104.207031 203.859375 104.15625 C 203.859375 104.152344 203.863281 104.148438 203.863281 104.140625 C 203.867188 104.132812 203.871094 104.125 203.875 104.117188 C 203.890625 104.085938 203.902344 104.058594 203.914062 104.03125 C 204.015625 103.820312 204.128906 103.617188 204.261719 103.425781 C 204.292969 103.378906 204.328125 103.328125 204.363281 103.28125 L 204.382812 103.253906 L 204.402344 103.230469 C 204.40625 103.222656 204.417969 103.210938 204.417969 103.210938 L 204.449219 103.171875 C 204.523438 103.082031 204.601562 102.992188 204.679688 102.910156 C 204.761719 102.828125 204.839844 102.746094 204.929688 102.667969 C 204.972656 102.628906 205.019531 102.589844 205.0625 102.554688 L 205.125 102.503906 L 205.171875 102.464844 C 205.359375 102.324219 205.554688 102.203125 205.761719 102.097656 C 205.8125 102.070312 205.863281 102.042969 205.917969 102.019531 L 206 101.984375 L 206.007812 101.984375 L 206.046875 101.96875 C 206.15625 101.925781 206.265625 101.886719 206.375 101.855469 C 206.488281 101.820312 206.601562 101.792969 206.714844 101.773438 C 206.839844 101.738281 206.886719 101.65625 206.851562 101.53125 C 206.816406 101.40625 206.734375 101.363281 206.609375 101.394531 C 205.625 101.605469 204.816406 102.101562 204.183594 102.886719 C 203.5625 103.644531 203.175781 104.59375 203.171875 105.582031 C 203.171875 106.5 203.328125 107.390625 203.648438 108.253906 C 203.964844 109.097656 204.414062 109.898438 204.890625 110.671875 Z M 208.394531 105.042969 Z M 208.394531 105.042969 " fill-opacity="1" fill-rule="nonzero"/></g><g fill="#336b87" fill-opacity="1"><g transform="translate(91.804822, 171.216932)"><g><path d="M 13.21875 -32.28125 C 15.90625 -32.28125 18.253906 -31.828125 20.265625 -30.921875 C 22.285156 -30.015625 23.960938 -28.796875 25.296875 -27.265625 C 26.640625 -25.734375 27.648438 -24.003906 28.328125 -22.078125 C 29.003906 -20.148438 29.34375 -18.171875 29.34375 -16.140625 C 29.34375 -14.109375 29.003906 -12.128906 28.328125 -10.203125 C 27.648438 -8.273438 26.640625 -6.539062 25.296875 -5 C 23.960938 -3.46875 22.285156 -2.25 20.265625 -1.34375 C 18.253906 -0.445312 15.90625 0 13.21875 0 L 3.609375 0 L 3.609375 -32.28125 Z M 13.21875 -25.828125 L 10.0625 -25.828125 L 10.0625 -6.453125 L 13.21875 -6.453125 C 15.03125 -6.453125 16.570312 -6.796875 17.84375 -7.484375 C 19.125 -8.179688 20.148438 -9.109375 20.921875 -10.265625 C 21.691406 -11.421875 22.203125 -12.691406 22.453125 -14.078125 C 22.710938 -15.460938 22.710938 -16.835938 22.453125 -18.203125 C 22.203125 -19.578125 21.691406 -20.84375 20.921875 -22 C 20.148438 -23.164062 19.125 -24.09375 17.84375 -24.78125 C 16.570312 -25.476562 15.03125 -25.828125 13.21875 -25.828125 Z M 13.21875 -25.828125 "/></g></g></g><g fill="#336b87" fill-opacity="1"><g transform="translate(123.583861, 171.216932)"><g><path d="M 20.3125 0 L 3.609375 0 L 3.609375 -32.28125 L 19.765625 -32.28125 L 19.765625 -25.828125 L 10.0625 -25.828125 L 10.0625 -19.359375 L 18.546875 -19.359375 L 18.546875 -12.90625 L 10.0625 -12.90625 L 10.0625 -6.453125 L 20.3125 -6.453125 Z M 20.3125 0 "/></g></g></g><g fill="#336b87" fill-opacity="1"><g transform="translate(146.33476, 171.216932)"><g><path d="M 2.125 -2.078125 L 2.9375 -8.84375 C 4.164062 -7.96875 5.390625 -7.34375 6.609375 -6.96875 C 7.828125 -6.59375 8.929688 -6.375 9.921875 -6.3125 C 10.921875 -6.257812 11.660156 -6.25 12.140625 -6.28125 C 13.109375 -6.332031 13.929688 -6.664062 14.609375 -7.28125 C 15.285156 -7.90625 15.578125 -8.65625 15.484375 -9.53125 C 15.421875 -10.457031 15.070312 -11.160156 14.4375 -11.640625 C 13.8125 -12.128906 13.046875 -12.519531 12.140625 -12.8125 C 10.453125 -13.445312 8.878906 -14.175781 7.421875 -15 C 5.960938 -15.832031 4.789062 -16.863281 3.90625 -18.09375 C 3.019531 -19.332031 2.578125 -20.851562 2.578125 -22.65625 C 2.578125 -24.46875 2.957031 -26.101562 3.71875 -27.5625 C 4.488281 -29.019531 5.566406 -30.179688 6.953125 -31.046875 C 8.335938 -31.921875 9.914062 -32.40625 11.6875 -32.5 C 12.53125 -32.5625 13.5625 -32.53125 14.78125 -32.40625 C 16 -32.289062 17.644531 -31.867188 19.71875 -31.140625 L 18.90625 -24.921875 C 17.132812 -25.640625 15.722656 -26.050781 14.671875 -26.15625 C 13.617188 -26.257812 12.835938 -26.296875 12.328125 -26.265625 C 11.179688 -26.210938 10.34375 -25.820312 9.8125 -25.09375 C 9.289062 -24.375 9.0625 -23.5625 9.125 -22.65625 C 9.207031 -21.757812 9.59375 -21.078125 10.28125 -20.609375 C 10.976562 -20.140625 11.796875 -19.738281 12.734375 -19.40625 C 14.410156 -18.800781 15.957031 -18.054688 17.375 -17.171875 C 18.789062 -16.285156 19.925781 -15.21875 20.78125 -13.96875 C 21.644531 -12.71875 22.078125 -11.238281 22.078125 -9.53125 C 22.078125 -7.75 21.679688 -6.132812 20.890625 -4.6875 C 20.109375 -3.25 18.988281 -2.09375 17.53125 -1.21875 C 16.070312 -0.34375 14.335938 0.148438 12.328125 0.265625 C 11.722656 0.296875 10.898438 0.273438 9.859375 0.203125 C 8.828125 0.128906 7.644531 -0.078125 6.3125 -0.421875 C 4.988281 -0.773438 3.59375 -1.328125 2.125 -2.078125 Z M 2.125 -2.078125 "/></g></g></g><g fill="#336b87" fill-opacity="1"><g transform="translate(170.214183, 171.216932)"><g><path d="M 15.390625 0 L 8.9375 0 L 8.9375 -25.828125 L 0.90625 -25.828125 L 0.90625 -32.234375 L 23.421875 -32.234375 L 23.421875 -25.828125 L 15.390625 -25.828125 Z M 15.390625 0 "/></g></g></g><g fill="#336b87" fill-opacity="1"><g transform="translate(194.906137, 171.216932)"><g><path d="M 10.0625 0 L 3.609375 0 L 3.609375 -32.28125 L 10.0625 -32.28125 Z M 10.0625 0 "/></g></g></g><g fill="#336b87" fill-opacity="1"><g transform="translate(208.628907, 171.216932)"><g><path d="M 10.0625 -17.5625 L 10.0625 0 L 3.609375 0 L 3.609375 -32.953125 L 5.328125 -32.953125 L 21.625 -14 L 21.625 -32.234375 L 28.125 -32.234375 L 28.125 0.671875 L 26.40625 0.671875 Z M 10.0625 -17.5625 "/></g></g></g><g fill="#336b87" fill-opacity="1"><g transform="translate(240.407946, 171.216932)"><g><path d="M 0.71875 0 L 14.3125 -33.453125 L 14.984375 -33.453125 L 28.578125 0 L 21.3125 0 L 20 -3.46875 L 9.296875 -3.46875 L 8.03125 0 Z M 11.640625 -9.53125 L 17.609375 -9.53125 L 14.671875 -17.921875 Z M 11.640625 -9.53125 "/></g></g></g><g fill="#336b87" fill-opacity="1"><g transform="translate(87.499167, 200.416482)"><g><path d="M 5.140625 0.296875 C 4.546875 0.296875 3.992188 0.195312 3.484375 0 C 2.984375 -0.207031 2.550781 -0.488281 2.1875 -0.84375 C 1.832031 -1.195312 1.550781 -1.613281 1.34375 -2.09375 C 1.144531 -2.570312 1.046875 -3.085938 1.046875 -3.640625 L 1.046875 -6.78125 C 1.046875 -7.332031 1.144531 -7.847656 1.34375 -8.328125 C 1.550781 -8.804688 1.832031 -9.222656 2.1875 -9.578125 C 2.550781 -9.929688 2.984375 -10.207031 3.484375 -10.40625 C 3.992188 -10.613281 4.546875 -10.71875 5.140625 -10.71875 C 5.617188 -10.71875 6.046875 -10.660156 6.421875 -10.546875 C 6.796875 -10.429688 7.125 -10.285156 7.40625 -10.109375 C 7.6875 -9.929688 7.921875 -9.738281 8.109375 -9.53125 C 8.296875 -9.320312 8.445312 -9.125 8.5625 -8.9375 L 8.671875 -8.71875 C 8.703125 -8.664062 8.726562 -8.597656 8.75 -8.515625 C 8.769531 -8.441406 8.78125 -8.382812 8.78125 -8.34375 C 8.78125 -7.945312 8.582031 -7.75 8.1875 -7.75 C 8.039062 -7.75 7.925781 -7.796875 7.84375 -7.890625 C 7.769531 -7.992188 7.6875 -8.117188 7.59375 -8.265625 C 7.488281 -8.453125 7.363281 -8.628906 7.21875 -8.796875 C 7.070312 -8.960938 6.898438 -9.109375 6.703125 -9.234375 C 6.503906 -9.367188 6.273438 -9.472656 6.015625 -9.546875 C 5.765625 -9.628906 5.472656 -9.671875 5.140625 -9.671875 C 4.734375 -9.671875 4.347656 -9.597656 3.984375 -9.453125 C 3.628906 -9.304688 3.320312 -9.097656 3.0625 -8.828125 C 2.8125 -8.566406 2.609375 -8.257812 2.453125 -7.90625 C 2.304688 -7.5625 2.234375 -7.1875 2.234375 -6.78125 L 2.234375 -3.640625 C 2.234375 -3.234375 2.304688 -2.851562 2.453125 -2.5 C 2.609375 -2.144531 2.8125 -1.835938 3.0625 -1.578125 C 3.320312 -1.316406 3.628906 -1.113281 3.984375 -0.96875 C 4.347656 -0.820312 4.734375 -0.75 5.140625 -0.75 C 5.492188 -0.75 5.804688 -0.796875 6.078125 -0.890625 C 6.359375 -0.984375 6.601562 -1.101562 6.8125 -1.25 C 7.03125 -1.394531 7.21875 -1.5625 7.375 -1.75 C 7.53125 -1.9375 7.65625 -2.125 7.75 -2.3125 C 7.820312 -2.457031 7.898438 -2.578125 7.984375 -2.671875 C 8.078125 -2.773438 8.21875 -2.828125 8.40625 -2.828125 C 8.5625 -2.828125 8.6875 -2.773438 8.78125 -2.671875 C 8.882812 -2.566406 8.9375 -2.421875 8.9375 -2.234375 C 8.9375 -2.171875 8.921875 -2.101562 8.890625 -2.03125 C 8.867188 -1.96875 8.84375 -1.90625 8.8125 -1.84375 L 8.71875 -1.640625 C 8.601562 -1.429688 8.445312 -1.210938 8.25 -0.984375 C 8.050781 -0.765625 7.804688 -0.554688 7.515625 -0.359375 C 7.222656 -0.171875 6.878906 -0.015625 6.484375 0.109375 C 6.085938 0.234375 5.640625 0.296875 5.140625 0.296875 Z M 5.140625 0.296875 "/></g></g></g><g fill="#336b87" fill-opacity="1"><g transform="translate(98.334741, 200.416482)"><g><path d="M 1.78125 0.078125 C 1.59375 0.078125 1.445312 0.015625 1.34375 -0.109375 C 1.238281 -0.234375 1.1875 -0.367188 1.1875 -0.515625 L 1.1875 -9.75 C 1.1875 -9.90625 1.238281 -10.039062 1.34375 -10.15625 C 1.445312 -10.28125 1.59375 -10.34375 1.78125 -10.34375 C 1.96875 -10.34375 2.113281 -10.28125 2.21875 -10.15625 C 2.320312 -10.039062 2.375 -9.90625 2.375 -9.75 L 2.375 -6.546875 L 2.453125 -6.546875 C 2.597656 -6.722656 2.769531 -6.875 2.96875 -7 C 3.132812 -7.101562 3.347656 -7.203125 3.609375 -7.296875 C 3.867188 -7.398438 4.179688 -7.453125 4.546875 -7.453125 C 4.910156 -7.453125 5.257812 -7.375 5.59375 -7.21875 C 5.9375 -7.070312 6.226562 -6.875 6.46875 -6.625 C 6.71875 -6.375 6.914062 -6.078125 7.0625 -5.734375 C 7.21875 -5.398438 7.296875 -5.050781 7.296875 -4.6875 L 7.296875 -0.515625 C 7.296875 -0.367188 7.242188 -0.234375 7.140625 -0.109375 C 7.035156 0.015625 6.890625 0.078125 6.703125 0.078125 C 6.515625 0.078125 6.367188 0.015625 6.265625 -0.109375 C 6.160156 -0.234375 6.109375 -0.367188 6.109375 -0.515625 L 6.109375 -4.6875 C 6.109375 -5.175781 5.9375 -5.582031 5.59375 -5.90625 C 5.257812 -6.238281 4.8125 -6.40625 4.25 -6.40625 C 3.675781 -6.40625 3.21875 -6.238281 2.875 -5.90625 C 2.539062 -5.582031 2.375 -5.175781 2.375 -4.6875 L 2.375 -0.515625 C 2.375 -0.367188 2.320312 -0.234375 2.21875 -0.109375 C 2.113281 0.015625 1.96875 0.078125 1.78125 0.078125 Z M 1.78125 0.078125 "/></g></g></g><g fill="#336b87" fill-opacity="1"><g transform="translate(107.979683, 200.416482)"><g><path d="M 4.09375 0.21875 C 3.625 0.21875 3.191406 0.144531 2.796875 0 C 2.410156 -0.15625 2.078125 -0.367188 1.796875 -0.640625 C 1.515625 -0.910156 1.289062 -1.21875 1.125 -1.5625 C 0.96875 -1.914062 0.890625 -2.289062 0.890625 -2.6875 L 0.890625 -4.546875 C 0.890625 -4.929688 0.96875 -5.296875 1.125 -5.640625 C 1.289062 -5.992188 1.515625 -6.304688 1.796875 -6.578125 C 2.078125 -6.847656 2.410156 -7.0625 2.796875 -7.21875 C 3.191406 -7.375 3.625 -7.453125 4.09375 -7.453125 C 4.5625 -7.453125 4.988281 -7.375 5.375 -7.21875 C 5.769531 -7.0625 6.109375 -6.847656 6.390625 -6.578125 C 6.671875 -6.304688 6.890625 -5.992188 7.046875 -5.640625 C 7.210938 -5.296875 7.296875 -4.929688 7.296875 -4.546875 L 7.296875 -3.71875 C 7.296875 -3.570312 7.242188 -3.4375 7.140625 -3.3125 C 7.035156 -3.1875 6.890625 -3.125 6.703125 -3.125 L 2.078125 -3.125 L 2.078125 -2.6875 C 2.078125 -2.425781 2.125 -2.179688 2.21875 -1.953125 C 2.320312 -1.722656 2.460938 -1.523438 2.640625 -1.359375 C 2.816406 -1.191406 3.023438 -1.054688 3.265625 -0.953125 C 3.515625 -0.859375 3.789062 -0.8125 4.09375 -0.8125 C 4.539062 -0.8125 4.894531 -0.867188 5.15625 -0.984375 C 5.414062 -1.097656 5.625 -1.226562 5.78125 -1.375 C 5.945312 -1.519531 6.085938 -1.648438 6.203125 -1.765625 C 6.316406 -1.878906 6.457031 -1.9375 6.625 -1.9375 C 6.769531 -1.9375 6.890625 -1.882812 6.984375 -1.78125 C 7.085938 -1.6875 7.140625 -1.566406 7.140625 -1.421875 C 7.140625 -1.285156 7.070312 -1.125 6.9375 -0.9375 C 6.800781 -0.75 6.601562 -0.570312 6.34375 -0.40625 C 6.082031 -0.238281 5.765625 -0.09375 5.390625 0.03125 C 5.015625 0.15625 4.582031 0.21875 4.09375 0.21875 Z M 6.109375 -4.171875 L 6.109375 -4.546875 C 6.109375 -4.796875 6.054688 -5.035156 5.953125 -5.265625 C 5.859375 -5.492188 5.722656 -5.691406 5.546875 -5.859375 C 5.367188 -6.035156 5.15625 -6.171875 4.90625 -6.265625 C 4.664062 -6.359375 4.394531 -6.40625 4.09375 -6.40625 C 3.789062 -6.40625 3.515625 -6.359375 3.265625 -6.265625 C 3.023438 -6.171875 2.816406 -6.035156 2.640625 -5.859375 C 2.460938 -5.691406 2.320312 -5.492188 2.21875 -5.265625 C 2.125 -5.035156 2.078125 -4.796875 2.078125 -4.546875 L 2.078125 -4.171875 Z M 6.109375 -4.171875 "/></g></g></g><g fill="#336b87" fill-opacity="1"><g transform="translate(117.326975, 200.416482)"><g><path d="M 1.78125 0.078125 C 1.59375 0.078125 1.445312 0.015625 1.34375 -0.109375 C 1.238281 -0.234375 1.1875 -0.367188 1.1875 -0.515625 L 1.1875 -6.703125 C 1.1875 -6.847656 1.238281 -6.984375 1.34375 -7.109375 C 1.445312 -7.234375 1.59375 -7.296875 1.78125 -7.296875 C 1.96875 -7.296875 2.113281 -7.234375 2.21875 -7.109375 C 2.320312 -6.984375 2.375 -6.847656 2.375 -6.703125 L 2.375 -6.546875 L 2.453125 -6.546875 C 2.554688 -6.722656 2.691406 -6.875 2.859375 -7 C 2.992188 -7.101562 3.171875 -7.203125 3.390625 -7.296875 C 3.609375 -7.398438 3.867188 -7.453125 4.171875 -7.453125 L 4.84375 -7.453125 C 4.988281 -7.453125 5.109375 -7.398438 5.203125 -7.296875 C 5.304688 -7.191406 5.359375 -7.066406 5.359375 -6.921875 C 5.359375 -6.773438 5.304688 -6.648438 5.203125 -6.546875 C 5.109375 -6.453125 4.988281 -6.40625 4.84375 -6.40625 L 4.015625 -6.40625 C 3.785156 -6.40625 3.570312 -6.359375 3.375 -6.265625 C 3.175781 -6.179688 3.003906 -6.054688 2.859375 -5.890625 C 2.710938 -5.734375 2.59375 -5.546875 2.5 -5.328125 C 2.414062 -5.109375 2.375 -4.867188 2.375 -4.609375 L 2.375 -0.515625 C 2.375 -0.367188 2.320312 -0.234375 2.21875 -0.109375 C 2.113281 0.015625 1.96875 0.078125 1.78125 0.078125 Z M 1.78125 0.078125 "/></g></g></g><g fill="#336b87" fill-opacity="1"><g transform="translate(123.995343, 200.416482)"><g><path d="M 4.09375 0.21875 C 3.625 0.21875 3.191406 0.144531 2.796875 0 C 2.410156 -0.15625 2.078125 -0.367188 1.796875 -0.640625 C 1.515625 -0.910156 1.289062 -1.21875 1.125 -1.5625 C 0.96875 -1.914062 0.890625 -2.289062 0.890625 -2.6875 L 0.890625 -4.546875 C 0.890625 -4.929688 0.96875 -5.296875 1.125 -5.640625 C 1.289062 -5.992188 1.515625 -6.304688 1.796875 -6.578125 C 2.078125 -6.847656 2.410156 -7.0625 2.796875 -7.21875 C 3.191406 -7.375 3.625 -7.453125 4.09375 -7.453125 C 4.476562 -7.453125 4.828125 -7.394531 5.140625 -7.28125 C 5.460938 -7.175781 5.742188 -7.039062 5.984375 -6.875 C 6.222656 -6.707031 6.421875 -6.53125 6.578125 -6.34375 C 6.734375 -6.15625 6.847656 -5.976562 6.921875 -5.8125 C 6.929688 -5.78125 6.941406 -5.742188 6.953125 -5.703125 C 6.960938 -5.671875 6.972656 -5.628906 6.984375 -5.578125 C 6.992188 -5.535156 7 -5.488281 7 -5.4375 C 7 -5.289062 6.945312 -5.164062 6.84375 -5.0625 C 6.75 -4.957031 6.628906 -4.90625 6.484375 -4.90625 C 6.328125 -4.90625 6.207031 -4.941406 6.125 -5.015625 C 6.050781 -5.097656 5.96875 -5.210938 5.875 -5.359375 C 5.6875 -5.660156 5.460938 -5.910156 5.203125 -6.109375 C 4.953125 -6.304688 4.582031 -6.40625 4.09375 -6.40625 C 3.789062 -6.40625 3.515625 -6.359375 3.265625 -6.265625 C 3.023438 -6.171875 2.816406 -6.035156 2.640625 -5.859375 C 2.460938 -5.691406 2.320312 -5.492188 2.21875 -5.265625 C 2.125 -5.035156 2.078125 -4.796875 2.078125 -4.546875 L 2.078125 -2.6875 C 2.078125 -2.425781 2.125 -2.179688 2.21875 -1.953125 C 2.320312 -1.722656 2.460938 -1.523438 2.640625 -1.359375 C 2.816406 -1.191406 3.023438 -1.054688 3.265625 -0.953125 C 3.515625 -0.859375 3.789062 -0.8125 4.09375 -0.8125 C 4.613281 -0.8125 5.03125 -0.9375 5.34375 -1.1875 C 5.65625 -1.4375 5.882812 -1.710938 6.03125 -2.015625 C 6.113281 -2.160156 6.195312 -2.269531 6.28125 -2.34375 C 6.363281 -2.414062 6.476562 -2.453125 6.625 -2.453125 C 6.769531 -2.453125 6.890625 -2.398438 6.984375 -2.296875 C 7.085938 -2.203125 7.140625 -2.082031 7.140625 -1.9375 C 7.140625 -1.875 7.132812 -1.820312 7.125 -1.78125 C 7.125 -1.738281 7.117188 -1.703125 7.109375 -1.671875 C 7.097656 -1.628906 7.085938 -1.59375 7.078125 -1.5625 C 6.992188 -1.375 6.867188 -1.175781 6.703125 -0.96875 C 6.546875 -0.757812 6.335938 -0.566406 6.078125 -0.390625 C 5.828125 -0.210938 5.535156 -0.0664062 5.203125 0.046875 C 4.867188 0.160156 4.5 0.21875 4.09375 0.21875 Z M 4.09375 0.21875 "/></g></g></g><g fill="#336b87" fill-opacity="1"><g transform="translate(132.896145, 200.416482)"><g><path d="M 1.78125 0.078125 C 1.59375 0.078125 1.445312 0.015625 1.34375 -0.109375 C 1.238281 -0.234375 1.1875 -0.367188 1.1875 -0.515625 L 1.1875 -9.75 C 1.1875 -9.90625 1.238281 -10.039062 1.34375 -10.15625 C 1.445312 -10.28125 1.59375 -10.34375 1.78125 -10.34375 C 1.96875 -10.34375 2.113281 -10.28125 2.21875 -10.15625 C 2.320312 -10.039062 2.375 -9.90625 2.375 -9.75 L 2.375 -6.546875 L 2.453125 -6.546875 C 2.597656 -6.722656 2.769531 -6.875 2.96875 -7 C 3.132812 -7.101562 3.347656 -7.203125 3.609375 -7.296875 C 3.867188 -7.398438 4.179688 -7.453125 4.546875 -7.453125 C 4.910156 -7.453125 5.257812 -7.375 5.59375 -7.21875 C 5.9375 -7.070312 6.226562 -6.875 6.46875 -6.625 C 6.71875 -6.375 6.914062 -6.078125 7.0625 -5.734375 C 7.21875 -5.398438 7.296875 -5.050781 7.296875 -4.6875 L 7.296875 -0.515625 C 7.296875 -0.367188 7.242188 -0.234375 7.140625 -0.109375 C 7.035156 0.015625 6.890625 0.078125 6.703125 0.078125 C 6.515625 0.078125 6.367188 0.015625 6.265625 -0.109375 C 6.160156 -0.234375 6.109375 -0.367188 6.109375 -0.515625 L 6.109375 -4.6875 C 6.109375 -5.175781 5.9375 -5.582031 5.59375 -5.90625 C 5.257812 -6.238281 4.8125 -6.40625 4.25 -6.40625 C 3.675781 -6.40625 3.21875 -6.238281 2.875 -5.90625 C 2.539062 -5.582031 2.375 -5.175781 2.375 -4.6875 L 2.375 -0.515625 C 2.375 -0.367188 2.320312 -0.234375 2.21875 -0.109375 C 2.113281 0.015625 1.96875 0.078125 1.78125 0.078125 Z M 1.78125 0.078125 "/></g></g></g><g fill="#336b87" fill-opacity="1"><g transform="translate(142.541085, 200.416482)"><g><path d="M 4.09375 0.21875 C 3.625 0.21875 3.191406 0.144531 2.796875 0 C 2.410156 -0.15625 2.078125 -0.367188 1.796875 -0.640625 C 1.515625 -0.910156 1.289062 -1.21875 1.125 -1.5625 C 0.96875 -1.914062 0.890625 -2.289062 0.890625 -2.6875 L 0.890625 -4.546875 C 0.890625 -4.929688 0.96875 -5.296875 1.125 -5.640625 C 1.289062 -5.992188 1.515625 -6.304688 1.796875 -6.578125 C 2.078125 -6.847656 2.410156 -7.0625 2.796875 -7.21875 C 3.191406 -7.375 3.625 -7.453125 4.09375 -7.453125 C 4.5625 -7.453125 4.988281 -7.375 5.375 -7.21875 C 5.769531 -7.0625 6.109375 -6.847656 6.390625 -6.578125 C 6.671875 -6.304688 6.890625 -5.992188 7.046875 -5.640625 C 7.210938 -5.296875 7.296875 -4.929688 7.296875 -4.546875 L 7.296875 -3.71875 C 7.296875 -3.570312 7.242188 -3.4375 7.140625 -3.3125 C 7.035156 -3.1875 6.890625 -3.125 6.703125 -3.125 L 2.078125 -3.125 L 2.078125 -2.6875 C 2.078125 -2.425781 2.125 -2.179688 2.21875 -1.953125 C 2.320312 -1.722656 2.460938 -1.523438 2.640625 -1.359375 C 2.816406 -1.191406 3.023438 -1.054688 3.265625 -0.953125 C 3.515625 -0.859375 3.789062 -0.8125 4.09375 -0.8125 C 4.539062 -0.8125 4.894531 -0.867188 5.15625 -0.984375 C 5.414062 -1.097656 5.625 -1.226562 5.78125 -1.375 C 5.945312 -1.519531 6.085938 -1.648438 6.203125 -1.765625 C 6.316406 -1.878906 6.457031 -1.9375 6.625 -1.9375 C 6.769531 -1.9375 6.890625 -1.882812 6.984375 -1.78125 C 7.085938 -1.6875 7.140625 -1.566406 7.140625 -1.421875 C 7.140625 -1.285156 7.070312 -1.125 6.9375 -0.9375 C 6.800781 -0.75 6.601562 -0.570312 6.34375 -0.40625 C 6.082031 -0.238281 5.765625 -0.09375 5.390625 0.03125 C 5.015625 0.15625 4.582031 0.21875 4.09375 0.21875 Z M 6.109375 -4.171875 L 6.109375 -4.546875 C 6.109375 -4.796875 6.054688 -5.035156 5.953125 -5.265625 C 5.859375 -5.492188 5.722656 -5.691406 5.546875 -5.859375 C 5.367188 -6.035156 5.15625 -6.171875 4.90625 -6.265625 C 4.664062 -6.359375 4.394531 -6.40625 4.09375 -6.40625 C 3.789062 -6.40625 3.515625 -6.359375 3.265625 -6.265625 C 3.023438 -6.171875 2.816406 -6.035156 2.640625 -5.859375 C 2.460938 -5.691406 2.320312 -5.492188 2.21875 -5.265625 C 2.125 -5.035156 2.078125 -4.796875 2.078125 -4.546875 L 2.078125 -4.171875 Z M 6.109375 -4.171875 "/></g></g></g><g fill="#336b87" fill-opacity="1"><g transform="translate(151.888378, 200.416482)"><g><path d="M 0.890625 0 C 0.742188 0 0.617188 -0.046875 0.515625 -0.140625 C 0.421875 -0.242188 0.375 -0.367188 0.375 -0.515625 C 0.375 -0.628906 0.40625 -0.742188 0.46875 -0.859375 C 0.507812 -0.921875 0.550781 -0.984375 0.59375 -1.046875 L 4.609375 -6.109375 L 4.609375 -6.171875 L 1.046875 -6.171875 C 0.890625 -6.171875 0.757812 -6.222656 0.65625 -6.328125 C 0.5625 -6.429688 0.515625 -6.554688 0.515625 -6.703125 C 0.515625 -6.847656 0.5625 -6.96875 0.65625 -7.0625 C 0.757812 -7.164062 0.890625 -7.21875 1.046875 -7.21875 L 5.734375 -7.21875 C 5.878906 -7.21875 6 -7.164062 6.09375 -7.0625 C 6.195312 -6.96875 6.25 -6.847656 6.25 -6.703125 C 6.25 -6.640625 6.234375 -6.578125 6.203125 -6.515625 C 6.179688 -6.460938 6.160156 -6.410156 6.140625 -6.359375 C 6.097656 -6.296875 6.0625 -6.234375 6.03125 -6.171875 L 2.015625 -1.109375 L 2.015625 -1.046875 L 5.875 -1.046875 C 6.03125 -1.046875 6.15625 -0.992188 6.25 -0.890625 C 6.351562 -0.796875 6.40625 -0.671875 6.40625 -0.515625 C 6.40625 -0.367188 6.351562 -0.242188 6.25 -0.140625 C 6.15625 -0.046875 6.03125 0 5.875 0 Z M 0.890625 0 "/></g></g></g><g fill="#336b87" fill-opacity="1"><g transform="translate(159.970619, 200.416482)"><g><path d="M 1.484375 0.15625 C 1.253906 0.15625 1.070312 0.078125 0.9375 -0.078125 C 0.8125 -0.234375 0.75 -0.40625 0.75 -0.59375 C 0.75 -0.78125 0.8125 -0.953125 0.9375 -1.109375 C 1.070312 -1.265625 1.253906 -1.34375 1.484375 -1.34375 C 1.710938 -1.34375 1.894531 -1.265625 2.03125 -1.109375 C 2.164062 -0.953125 2.234375 -0.78125 2.234375 -0.59375 C 2.234375 -0.40625 2.164062 -0.234375 2.03125 -0.078125 C 1.894531 0.078125 1.710938 0.15625 1.484375 0.15625 Z M 1.484375 0.15625 "/></g></g></g><g fill="#336b87" fill-opacity="1"><g transform="translate(164.257736, 200.416482)"><g/></g></g><g fill="#336b87" fill-opacity="1"><g transform="translate(169.140163, 200.416482)"><g><path d="M 4.171875 0.15625 C 3.984375 0.15625 3.835938 0.09375 3.734375 -0.03125 C 3.628906 -0.15625 3.578125 -0.296875 3.578125 -0.453125 L 3.578125 -9.375 L 0.75 -9.375 C 0.5625 -9.375 0.414062 -9.421875 0.3125 -9.515625 C 0.207031 -9.617188 0.15625 -9.75 0.15625 -9.90625 C 0.15625 -10.050781 0.207031 -10.171875 0.3125 -10.265625 C 0.414062 -10.367188 0.5625 -10.421875 0.75 -10.421875 L 7.59375 -10.421875 C 7.78125 -10.421875 7.925781 -10.367188 8.03125 -10.265625 C 8.132812 -10.171875 8.1875 -10.050781 8.1875 -9.90625 C 8.1875 -9.75 8.132812 -9.617188 8.03125 -9.515625 C 7.925781 -9.421875 7.78125 -9.375 7.59375 -9.375 L 4.765625 -9.375 L 4.765625 -0.453125 C 4.765625 -0.296875 4.710938 -0.15625 4.609375 -0.03125 C 4.503906 0.09375 4.359375 0.15625 4.171875 0.15625 Z M 4.171875 0.15625 "/></g></g></g><g fill="#336b87" fill-opacity="1"><g transform="translate(178.785105, 200.416482)"><g><path d="M 1.78125 0.078125 C 1.59375 0.078125 1.445312 0.015625 1.34375 -0.109375 C 1.238281 -0.234375 1.1875 -0.367188 1.1875 -0.515625 L 1.1875 -6.703125 C 1.1875 -6.847656 1.238281 -6.984375 1.34375 -7.109375 C 1.445312 -7.234375 1.59375 -7.296875 1.78125 -7.296875 C 1.96875 -7.296875 2.113281 -7.234375 2.21875 -7.109375 C 2.320312 -6.984375 2.375 -6.847656 2.375 -6.703125 L 2.375 -6.546875 L 2.453125 -6.546875 C 2.554688 -6.722656 2.691406 -6.875 2.859375 -7 C 2.992188 -7.101562 3.171875 -7.203125 3.390625 -7.296875 C 3.609375 -7.398438 3.867188 -7.453125 4.171875 -7.453125 L 4.84375 -7.453125 C 4.988281 -7.453125 5.109375 -7.398438 5.203125 -7.296875 C 5.304688 -7.191406 5.359375 -7.066406 5.359375 -6.921875 C 5.359375 -6.773438 5.304688 -6.648438 5.203125 -6.546875 C 5.109375 -6.453125 4.988281 -6.40625 4.84375 -6.40625 L 4.015625 -6.40625 C 3.785156 -6.40625 3.570312 -6.359375 3.375 -6.265625 C 3.175781 -6.179688 3.003906 -6.054688 2.859375 -5.890625 C 2.710938 -5.734375 2.59375 -5.546875 2.5 -5.328125 C 2.414062 -5.109375 2.375 -4.867188 2.375 -4.609375 L 2.375 -0.515625 C 2.375 -0.367188 2.320312 -0.234375 2.21875 -0.109375 C 2.113281 0.015625 1.96875 0.078125 1.78125 0.078125 Z M 1.78125 0.078125 "/></g></g></g><g fill="#336b87" fill-opacity="1"><g transform="translate(185.453468, 200.416482)"><g><path d="M 4.09375 0.21875 C 3.625 0.21875 3.191406 0.144531 2.796875 0 C 2.410156 -0.15625 2.078125 -0.367188 1.796875 -0.640625 C 1.515625 -0.910156 1.289062 -1.21875 1.125 -1.5625 C 0.96875 -1.914062 0.890625 -2.289062 0.890625 -2.6875 L 0.890625 -4.546875 C 0.890625 -4.929688 0.96875 -5.296875 1.125 -5.640625 C 1.289062 -5.992188 1.515625 -6.304688 1.796875 -6.578125 C 2.078125 -6.847656 2.410156 -7.0625 2.796875 -7.21875 C 3.191406 -7.375 3.625 -7.453125 4.09375 -7.453125 C 4.5625 -7.453125 4.988281 -7.375 5.375 -7.21875 C 5.769531 -7.0625 6.109375 -6.847656 6.390625 -6.578125 C 6.671875 -6.304688 6.890625 -5.992188 7.046875 -5.640625 C 7.210938 -5.296875 7.296875 -4.929688 7.296875 -4.546875 L 7.296875 -2.6875 C 7.296875 -2.289062 7.210938 -1.914062 7.046875 -1.5625 C 6.890625 -1.21875 6.671875 -0.910156 6.390625 -0.640625 C 6.109375 -0.367188 5.769531 -0.15625 5.375 0 C 4.988281 0.144531 4.5625 0.21875 4.09375 0.21875 Z M 4.09375 -0.8125 C 4.394531 -0.8125 4.664062 -0.859375 4.90625 -0.953125 C 5.15625 -1.054688 5.367188 -1.191406 5.546875 -1.359375 C 5.722656 -1.523438 5.859375 -1.722656 5.953125 -1.953125 C 6.054688 -2.179688 6.109375 -2.425781 6.109375 -2.6875 L 6.109375 -4.546875 C 6.109375 -4.796875 6.054688 -5.035156 5.953125 -5.265625 C 5.859375 -5.492188 5.722656 -5.691406 5.546875 -5.859375 C 5.367188 -6.035156 5.15625 -6.171875 4.90625 -6.265625 C 4.664062 -6.359375 4.394531 -6.40625 4.09375 -6.40625 C 3.789062 -6.40625 3.515625 -6.359375 3.265625 -6.265625 C 3.023438 -6.171875 2.816406 -6.035156 2.640625 -5.859375 C 2.460938 -5.691406 2.320312 -5.492188 2.21875 -5.265625 C 2.125 -5.035156 2.078125 -4.796875 2.078125 -4.546875 L 2.078125 -2.6875 C 2.078125 -2.425781 2.125 -2.179688 2.21875 -1.953125 C 2.320312 -1.722656 2.460938 -1.523438 2.640625 -1.359375 C 2.816406 -1.191406 3.023438 -1.054688 3.265625 -0.953125 C 3.515625 -0.859375 3.789062 -0.8125 4.09375 -0.8125 Z M 4.09375 -0.8125 "/></g></g></g><g fill="#336b87" fill-opacity="1"><g transform="translate(194.949581, 200.416482)"><g><path d="M 3.953125 0.21875 C 3.566406 0.21875 3.207031 0.144531 2.875 0 C 2.539062 -0.144531 2.25 -0.34375 2 -0.59375 C 1.757812 -0.84375 1.5625 -1.132812 1.40625 -1.46875 C 1.257812 -1.800781 1.1875 -2.15625 1.1875 -2.53125 L 1.1875 -6.703125 C 1.1875 -6.847656 1.238281 -6.984375 1.34375 -7.109375 C 1.445312 -7.234375 1.59375 -7.296875 1.78125 -7.296875 C 1.96875 -7.296875 2.113281 -7.234375 2.21875 -7.109375 C 2.320312 -6.984375 2.375 -6.847656 2.375 -6.703125 L 2.375 -2.53125 C 2.375 -2.039062 2.539062 -1.628906 2.875 -1.296875 C 3.21875 -0.972656 3.675781 -0.8125 4.25 -0.8125 C 4.8125 -0.8125 5.257812 -0.972656 5.59375 -1.296875 C 5.9375 -1.628906 6.109375 -2.039062 6.109375 -2.53125 L 6.109375 -6.703125 C 6.109375 -6.847656 6.160156 -6.984375 6.265625 -7.109375 C 6.367188 -7.234375 6.515625 -7.296875 6.703125 -7.296875 C 6.890625 -7.296875 7.035156 -7.234375 7.140625 -7.109375 C 7.242188 -6.984375 7.296875 -6.847656 7.296875 -6.703125 L 7.296875 -0.515625 C 7.296875 -0.367188 7.242188 -0.234375 7.140625 -0.109375 C 7.035156 0.015625 6.890625 0.078125 6.703125 0.078125 C 6.515625 0.078125 6.367188 0.015625 6.265625 -0.109375 C 6.160156 -0.234375 6.109375 -0.367188 6.109375 -0.515625 L 6.109375 -0.671875 L 6.03125 -0.671875 C 5.894531 -0.503906 5.726562 -0.351562 5.53125 -0.21875 C 5.351562 -0.113281 5.128906 -0.015625 4.859375 0.078125 C 4.597656 0.171875 4.296875 0.21875 3.953125 0.21875 Z M 3.953125 0.21875 "/></g></g></g><g fill="#336b87" fill-opacity="1"><g transform="translate(204.743354, 200.416482)"><g><path d="M 3.578125 0.21875 C 3.347656 0.21875 3.160156 0.15625 3.015625 0.03125 C 2.867188 -0.09375 2.757812 -0.253906 2.6875 -0.453125 L 0.375 -6.171875 C 0.34375 -6.253906 0.304688 -6.34375 0.265625 -6.4375 C 0.234375 -6.53125 0.21875 -6.617188 0.21875 -6.703125 C 0.21875 -6.847656 0.269531 -6.984375 0.375 -7.109375 C 0.476562 -7.234375 0.625 -7.296875 0.8125 -7.296875 C 0.96875 -7.296875 1.09375 -7.25 1.1875 -7.15625 C 1.289062 -7.0625 1.367188 -6.957031 1.421875 -6.84375 L 3.546875 -1.484375 L 3.609375 -1.484375 L 5.734375 -6.84375 C 5.785156 -6.957031 5.859375 -7.0625 5.953125 -7.15625 C 6.054688 -7.25 6.179688 -7.296875 6.328125 -7.296875 C 6.515625 -7.296875 6.660156 -7.234375 6.765625 -7.109375 C 6.867188 -6.984375 6.921875 -6.847656 6.921875 -6.703125 C 6.921875 -6.617188 6.898438 -6.53125 6.859375 -6.4375 C 6.828125 -6.34375 6.800781 -6.253906 6.78125 -6.171875 L 4.46875 -0.453125 C 4.382812 -0.253906 4.269531 -0.09375 4.125 0.03125 C 3.988281 0.15625 3.804688 0.21875 3.578125 0.21875 Z M 3.578125 0.21875 "/></g></g></g><g fill="#336b87" fill-opacity="1"><g transform="translate(213.197676, 200.416482)"><g><path d="M 4.09375 0.21875 C 3.625 0.21875 3.191406 0.144531 2.796875 0 C 2.410156 -0.15625 2.078125 -0.367188 1.796875 -0.640625 C 1.515625 -0.910156 1.289062 -1.21875 1.125 -1.5625 C 0.96875 -1.914062 0.890625 -2.289062 0.890625 -2.6875 L 0.890625 -4.546875 C 0.890625 -4.929688 0.96875 -5.296875 1.125 -5.640625 C 1.289062 -5.992188 1.515625 -6.304688 1.796875 -6.578125 C 2.078125 -6.847656 2.410156 -7.0625 2.796875 -7.21875 C 3.191406 -7.375 3.625 -7.453125 4.09375 -7.453125 C 4.5625 -7.453125 4.988281 -7.375 5.375 -7.21875 C 5.769531 -7.0625 6.109375 -6.847656 6.390625 -6.578125 C 6.671875 -6.304688 6.890625 -5.992188 7.046875 -5.640625 C 7.210938 -5.296875 7.296875 -4.929688 7.296875 -4.546875 L 7.296875 -3.71875 C 7.296875 -3.570312 7.242188 -3.4375 7.140625 -3.3125 C 7.035156 -3.1875 6.890625 -3.125 6.703125 -3.125 L 2.078125 -3.125 L 2.078125 -2.6875 C 2.078125 -2.425781 2.125 -2.179688 2.21875 -1.953125 C 2.320312 -1.722656 2.460938 -1.523438 2.640625 -1.359375 C 2.816406 -1.191406 3.023438 -1.054688 3.265625 -0.953125 C 3.515625 -0.859375 3.789062 -0.8125 4.09375 -0.8125 C 4.539062 -0.8125 4.894531 -0.867188 5.15625 -0.984375 C 5.414062 -1.097656 5.625 -1.226562 5.78125 -1.375 C 5.945312 -1.519531 6.085938 -1.648438 6.203125 -1.765625 C 6.316406 -1.878906 6.457031 -1.9375 6.625 -1.9375 C 6.769531 -1.9375 6.890625 -1.882812 6.984375 -1.78125 C 7.085938 -1.6875 7.140625 -1.566406 7.140625 -1.421875 C 7.140625 -1.285156 7.070312 -1.125 6.9375 -0.9375 C 6.800781 -0.75 6.601562 -0.570312 6.34375 -0.40625 C 6.082031 -0.238281 5.765625 -0.09375 5.390625 0.03125 C 5.015625 0.15625 4.582031 0.21875 4.09375 0.21875 Z M 6.109375 -4.171875 L 6.109375 -4.546875 C 6.109375 -4.796875 6.054688 -5.035156 5.953125 -5.265625 C 5.859375 -5.492188 5.722656 -5.691406 5.546875 -5.859375 C 5.367188 -6.035156 5.15625 -6.171875 4.90625 -6.265625 C 4.664062 -6.359375 4.394531 -6.40625 4.09375 -6.40625 C 3.789062 -6.40625 3.515625 -6.359375 3.265625 -6.265625 C 3.023438 -6.171875 2.816406 -6.035156 2.640625 -5.859375 C 2.460938 -5.691406 2.320312 -5.492188 2.21875 -5.265625 C 2.125 -5.035156 2.078125 -4.796875 2.078125 -4.546875 L 2.078125 -4.171875 Z M 6.109375 -4.171875 "/></g></g></g><g fill="#336b87" fill-opacity="1"><g transform="translate(222.544969, 200.416482)"><g><path d="M 0.890625 0 C 0.742188 0 0.617188 -0.046875 0.515625 -0.140625 C 0.421875 -0.242188 0.375 -0.367188 0.375 -0.515625 C 0.375 -0.628906 0.40625 -0.742188 0.46875 -0.859375 C 0.507812 -0.921875 0.550781 -0.984375 0.59375 -1.046875 L 4.609375 -6.109375 L 4.609375 -6.171875 L 1.046875 -6.171875 C 0.890625 -6.171875 0.757812 -6.222656 0.65625 -6.328125 C 0.5625 -6.429688 0.515625 -6.554688 0.515625 -6.703125 C 0.515625 -6.847656 0.5625 -6.96875 0.65625 -7.0625 C 0.757812 -7.164062 0.890625 -7.21875 1.046875 -7.21875 L 5.734375 -7.21875 C 5.878906 -7.21875 6 -7.164062 6.09375 -7.0625 C 6.195312 -6.96875 6.25 -6.847656 6.25 -6.703125 C 6.25 -6.640625 6.234375 -6.578125 6.203125 -6.515625 C 6.179688 -6.460938 6.160156 -6.410156 6.140625 -6.359375 C 6.097656 -6.296875 6.0625 -6.234375 6.03125 -6.171875 L 2.015625 -1.109375 L 2.015625 -1.046875 L 5.875 -1.046875 C 6.03125 -1.046875 6.15625 -0.992188 6.25 -0.890625 C 6.351562 -0.796875 6.40625 -0.671875 6.40625 -0.515625 C 6.40625 -0.367188 6.351562 -0.242188 6.25 -0.140625 C 6.15625 -0.046875 6.03125 0 5.875 0 Z M 0.890625 0 "/></g></g></g><g fill="#336b87" fill-opacity="1"><g transform="translate(230.62721, 200.416482)"><g><path d="M 1.484375 0.15625 C 1.253906 0.15625 1.070312 0.078125 0.9375 -0.078125 C 0.8125 -0.234375 0.75 -0.40625 0.75 -0.59375 C 0.75 -0.78125 0.8125 -0.953125 0.9375 -1.109375 C 1.070312 -1.265625 1.253906 -1.34375 1.484375 -1.34375 C 1.710938 -1.34375 1.894531 -1.265625 2.03125 -1.109375 C 2.164062 -0.953125 2.234375 -0.78125 2.234375 -0.59375 C 2.234375 -0.40625 2.164062 -0.234375 2.03125 -0.078125 C 1.894531 0.078125 1.710938 0.15625 1.484375 0.15625 Z M 1.484375 0.15625 "/></g></g></g><g fill="#336b87" fill-opacity="1"><g transform="translate(234.914326, 200.416482)"><g/></g></g><g fill="#336b87" fill-opacity="1"><g transform="translate(239.796753, 200.416482)"><g><path d="M 1.9375 0.15625 C 1.75 0.15625 1.601562 0.09375 1.5 -0.03125 C 1.394531 -0.15625 1.34375 -0.296875 1.34375 -0.453125 L 1.34375 -9.828125 C 1.34375 -9.972656 1.394531 -10.109375 1.5 -10.234375 C 1.601562 -10.359375 1.75 -10.421875 1.9375 -10.421875 L 4.6875 -10.421875 C 5.34375 -10.421875 5.921875 -10.332031 6.421875 -10.15625 C 6.929688 -9.988281 7.359375 -9.753906 7.703125 -9.453125 C 8.054688 -9.148438 8.320312 -8.789062 8.5 -8.375 C 8.6875 -7.96875 8.78125 -7.535156 8.78125 -7.078125 C 8.78125 -6.609375 8.6875 -6.171875 8.5 -5.765625 C 8.320312 -5.359375 8.054688 -5 7.703125 -4.6875 C 7.359375 -4.382812 6.929688 -4.144531 6.421875 -3.96875 C 5.921875 -3.789062 5.34375 -3.703125 4.6875 -3.703125 L 2.53125 -3.703125 L 2.53125 -0.453125 C 2.53125 -0.296875 2.476562 -0.15625 2.375 -0.03125 C 2.269531 0.09375 2.125 0.15625 1.9375 0.15625 Z M 4.6875 -4.75 C 5.15625 -4.75 5.570312 -4.8125 5.9375 -4.9375 C 6.300781 -5.0625 6.601562 -5.226562 6.84375 -5.4375 C 7.082031 -5.644531 7.265625 -5.890625 7.390625 -6.171875 C 7.523438 -6.453125 7.59375 -6.753906 7.59375 -7.078125 C 7.59375 -7.390625 7.523438 -7.6875 7.390625 -7.96875 C 7.265625 -8.25 7.082031 -8.492188 6.84375 -8.703125 C 6.601562 -8.910156 6.300781 -9.070312 5.9375 -9.1875 C 5.570312 -9.3125 5.15625 -9.375 4.6875 -9.375 L 2.53125 -9.375 L 2.53125 -4.75 Z M 4.6875 -4.75 "/></g></g></g><g fill="#336b87" fill-opacity="1"><g transform="translate(250.632328, 200.416482)"><g><path d="M 3.125 0.21875 C 2.75 0.21875 2.410156 0.160156 2.109375 0.046875 C 1.816406 -0.0664062 1.5625 -0.222656 1.34375 -0.421875 C 1.125 -0.617188 0.957031 -0.851562 0.84375 -1.125 C 0.726562 -1.394531 0.671875 -1.691406 0.671875 -2.015625 C 0.671875 -2.304688 0.734375 -2.585938 0.859375 -2.859375 C 0.984375 -3.128906 1.160156 -3.367188 1.390625 -3.578125 C 1.628906 -3.785156 1.921875 -3.945312 2.265625 -4.0625 C 2.609375 -4.1875 2.992188 -4.25 3.421875 -4.25 L 5.578125 -4.25 L 5.578125 -4.6875 C 5.578125 -5.175781 5.410156 -5.582031 5.078125 -5.90625 C 4.742188 -6.238281 4.289062 -6.40625 3.71875 -6.40625 C 3.269531 -6.40625 2.925781 -6.316406 2.6875 -6.140625 C 2.445312 -5.960938 2.269531 -5.800781 2.15625 -5.65625 C 2.050781 -5.507812 1.953125 -5.398438 1.859375 -5.328125 C 1.765625 -5.253906 1.640625 -5.21875 1.484375 -5.21875 C 1.335938 -5.21875 1.210938 -5.265625 1.109375 -5.359375 C 1.015625 -5.460938 0.96875 -5.585938 0.96875 -5.734375 C 0.96875 -5.835938 0.992188 -5.941406 1.046875 -6.046875 C 1.066406 -6.097656 1.085938 -6.140625 1.109375 -6.171875 C 1.171875 -6.265625 1.269531 -6.382812 1.40625 -6.53125 C 1.550781 -6.675781 1.734375 -6.8125 1.953125 -6.9375 C 2.171875 -7.070312 2.425781 -7.191406 2.71875 -7.296875 C 3.007812 -7.398438 3.34375 -7.453125 3.71875 -7.453125 C 4.164062 -7.453125 4.578125 -7.375 4.953125 -7.21875 C 5.328125 -7.070312 5.648438 -6.875 5.921875 -6.625 C 6.191406 -6.375 6.398438 -6.078125 6.546875 -5.734375 C 6.703125 -5.398438 6.78125 -5.050781 6.78125 -4.6875 L 6.78125 -0.515625 C 6.78125 -0.367188 6.726562 -0.234375 6.625 -0.109375 C 6.519531 0.015625 6.367188 0.078125 6.171875 0.078125 C 5.984375 0.078125 5.835938 0.015625 5.734375 -0.109375 C 5.628906 -0.234375 5.578125 -0.367188 5.578125 -0.515625 L 5.578125 -0.59375 L 5.515625 -0.59375 C 5.328125 -0.4375 5.113281 -0.296875 4.875 -0.171875 C 4.664062 -0.0664062 4.414062 0.0195312 4.125 0.09375 C 3.832031 0.175781 3.5 0.21875 3.125 0.21875 Z M 3.28125 -0.8125 C 3.695312 -0.8125 4.046875 -0.859375 4.328125 -0.953125 C 4.617188 -1.054688 4.859375 -1.171875 5.046875 -1.296875 C 5.265625 -1.429688 5.441406 -1.59375 5.578125 -1.78125 L 5.578125 -3.203125 L 3.421875 -3.203125 C 2.898438 -3.203125 2.507812 -3.085938 2.25 -2.859375 C 1.988281 -2.628906 1.859375 -2.347656 1.859375 -2.015625 C 1.859375 -1.671875 1.984375 -1.382812 2.234375 -1.15625 C 2.484375 -0.925781 2.832031 -0.8125 3.28125 -0.8125 Z M 3.28125 -0.8125 "/></g></g></g><g fill="#336b87" fill-opacity="1"><g transform="translate(259.75637, 200.416482)"><g><path d="M 1.78125 0.078125 C 1.59375 0.078125 1.445312 0.015625 1.34375 -0.109375 C 1.238281 -0.234375 1.1875 -0.367188 1.1875 -0.515625 L 1.1875 -6.703125 C 1.1875 -6.847656 1.238281 -6.984375 1.34375 -7.109375 C 1.445312 -7.234375 1.59375 -7.296875 1.78125 -7.296875 C 1.96875 -7.296875 2.113281 -7.234375 2.21875 -7.109375 C 2.320312 -6.984375 2.375 -6.847656 2.375 -6.703125 L 2.375 -6.546875 L 2.453125 -6.546875 C 2.554688 -6.722656 2.691406 -6.875 2.859375 -7 C 2.992188 -7.101562 3.171875 -7.203125 3.390625 -7.296875 C 3.609375 -7.398438 3.867188 -7.453125 4.171875 -7.453125 L 4.84375 -7.453125 C 4.988281 -7.453125 5.109375 -7.398438 5.203125 -7.296875 C 5.304688 -7.191406 5.359375 -7.066406 5.359375 -6.921875 C 5.359375 -6.773438 5.304688 -6.648438 5.203125 -6.546875 C 5.109375 -6.453125 4.988281 -6.40625 4.84375 -6.40625 L 4.015625 -6.40625 C 3.785156 -6.40625 3.570312 -6.359375 3.375 -6.265625 C 3.175781 -6.179688 3.003906 -6.054688 2.859375 -5.890625 C 2.710938 -5.734375 2.59375 -5.546875 2.5 -5.328125 C 2.414062 -5.109375 2.375 -4.867188 2.375 -4.609375 L 2.375 -0.515625 C 2.375 -0.367188 2.320312 -0.234375 2.21875 -0.109375 C 2.113281 0.015625 1.96875 0.078125 1.78125 0.078125 Z M 1.78125 0.078125 "/></g></g></g><g fill="#336b87" fill-opacity="1"><g transform="translate(266.424738, 200.416482)"><g><path d="M 3.875 0 C 3.53125 0 3.21875 -0.0546875 2.9375 -0.171875 C 2.65625 -0.285156 2.410156 -0.441406 2.203125 -0.640625 C 2.003906 -0.847656 1.847656 -1.09375 1.734375 -1.375 C 1.617188 -1.65625 1.5625 -1.96875 1.5625 -2.3125 L 1.5625 -6.109375 L 0.8125 -6.109375 C 0.664062 -6.109375 0.539062 -6.15625 0.4375 -6.25 C 0.34375 -6.351562 0.296875 -6.476562 0.296875 -6.625 C 0.296875 -6.769531 0.34375 -6.890625 0.4375 -6.984375 C 0.539062 -7.085938 0.664062 -7.140625 0.8125 -7.140625 L 1.5625 -7.140625 L 1.5625 -8.5625 C 1.5625 -8.707031 1.613281 -8.84375 1.71875 -8.96875 C 1.820312 -9.09375 1.96875 -9.15625 2.15625 -9.15625 C 2.34375 -9.15625 2.488281 -9.09375 2.59375 -8.96875 C 2.695312 -8.84375 2.75 -8.707031 2.75 -8.5625 L 2.75 -7.140625 L 4.84375 -7.140625 C 4.988281 -7.140625 5.109375 -7.085938 5.203125 -6.984375 C 5.304688 -6.890625 5.359375 -6.769531 5.359375 -6.625 C 5.359375 -6.476562 5.304688 -6.351562 5.203125 -6.25 C 5.109375 -6.15625 4.988281 -6.109375 4.84375 -6.109375 L 2.75 -6.109375 L 2.75 -2.3125 C 2.75 -1.894531 2.847656 -1.578125 3.046875 -1.359375 C 3.253906 -1.148438 3.53125 -1.046875 3.875 -1.046875 L 5.21875 -1.046875 C 5.363281 -1.046875 5.484375 -0.992188 5.578125 -0.890625 C 5.679688 -0.796875 5.734375 -0.671875 5.734375 -0.515625 C 5.734375 -0.367188 5.679688 -0.242188 5.578125 -0.140625 C 5.484375 -0.046875 5.363281 0 5.21875 0 Z M 3.875 0 "/></g></g></g><g fill="#336b87" fill-opacity="1"><g transform="translate(273.614008, 200.416482)"><g><path d="M 4.09375 0.21875 C 3.625 0.21875 3.191406 0.144531 2.796875 0 C 2.410156 -0.15625 2.078125 -0.367188 1.796875 -0.640625 C 1.515625 -0.910156 1.289062 -1.21875 1.125 -1.5625 C 0.96875 -1.914062 0.890625 -2.289062 0.890625 -2.6875 L 0.890625 -4.546875 C 0.890625 -4.929688 0.96875 -5.296875 1.125 -5.640625 C 1.289062 -5.992188 1.515625 -6.304688 1.796875 -6.578125 C 2.078125 -6.847656 2.410156 -7.0625 2.796875 -7.21875 C 3.191406 -7.375 3.625 -7.453125 4.09375 -7.453125 C 4.5625 -7.453125 4.988281 -7.375 5.375 -7.21875 C 5.769531 -7.0625 6.109375 -6.847656 6.390625 -6.578125 C 6.671875 -6.304688 6.890625 -5.992188 7.046875 -5.640625 C 7.210938 -5.296875 7.296875 -4.929688 7.296875 -4.546875 L 7.296875 -3.71875 C 7.296875 -3.570312 7.242188 -3.4375 7.140625 -3.3125 C 7.035156 -3.1875 6.890625 -3.125 6.703125 -3.125 L 2.078125 -3.125 L 2.078125 -2.6875 C 2.078125 -2.425781 2.125 -2.179688 2.21875 -1.953125 C 2.320312 -1.722656 2.460938 -1.523438 2.640625 -1.359375 C 2.816406 -1.191406 3.023438 -1.054688 3.265625 -0.953125 C 3.515625 -0.859375 3.789062 -0.8125 4.09375 -0.8125 C 4.539062 -0.8125 4.894531 -0.867188 5.15625 -0.984375 C 5.414062 -1.097656 5.625 -1.226562 5.78125 -1.375 C 5.945312 -1.519531 6.085938 -1.648438 6.203125 -1.765625 C 6.316406 -1.878906 6.457031 -1.9375 6.625 -1.9375 C 6.769531 -1.9375 6.890625 -1.882812 6.984375 -1.78125 C 7.085938 -1.6875 7.140625 -1.566406 7.140625 -1.421875 C 7.140625 -1.285156 7.070312 -1.125 6.9375 -0.9375 C 6.800781 -0.75 6.601562 -0.570312 6.34375 -0.40625 C 6.082031 -0.238281 5.765625 -0.09375 5.390625 0.03125 C 5.015625 0.15625 4.582031 0.21875 4.09375 0.21875 Z M 6.109375 -4.171875 L 6.109375 -4.546875 C 6.109375 -4.796875 6.054688 -5.035156 5.953125 -5.265625 C 5.859375 -5.492188 5.722656 -5.691406 5.546875 -5.859375 C 5.367188 -6.035156 5.15625 -6.171875 4.90625 -6.265625 C 4.664062 -6.359375 4.394531 -6.40625 4.09375 -6.40625 C 3.789062 -6.40625 3.515625 -6.359375 3.265625 -6.265625 C 3.023438 -6.171875 2.816406 -6.035156 2.640625 -5.859375 C 2.460938 -5.691406 2.320312 -5.492188 2.21875 -5.265625 C 2.125 -5.035156 2.078125 -4.796875 2.078125 -4.546875 L 2.078125 -4.171875 Z M 6.109375 -4.171875 "/></g></g></g><g fill="#336b87" fill-opacity="1"><g transform="translate(282.96129, 200.416482)"><g><path d="M 0.890625 0 C 0.742188 0 0.617188 -0.046875 0.515625 -0.140625 C 0.421875 -0.242188 0.375 -0.367188 0.375 -0.515625 C 0.375 -0.628906 0.40625 -0.742188 0.46875 -0.859375 C 0.507812 -0.921875 0.550781 -0.984375 0.59375 -1.046875 L 4.609375 -6.109375 L 4.609375 -6.171875 L 1.046875 -6.171875 C 0.890625 -6.171875 0.757812 -6.222656 0.65625 -6.328125 C 0.5625 -6.429688 0.515625 -6.554688 0.515625 -6.703125 C 0.515625 -6.847656 0.5625 -6.96875 0.65625 -7.0625 C 0.757812 -7.164062 0.890625 -7.21875 1.046875 -7.21875 L 5.734375 -7.21875 C 5.878906 -7.21875 6 -7.164062 6.09375 -7.0625 C 6.195312 -6.96875 6.25 -6.847656 6.25 -6.703125 C 6.25 -6.640625 6.234375 -6.578125 6.203125 -6.515625 C 6.179688 -6.460938 6.160156 -6.410156 6.140625 -6.359375 C 6.097656 -6.296875 6.0625 -6.234375 6.03125 -6.171875 L 2.015625 -1.109375 L 2.015625 -1.046875 L 5.875 -1.046875 C 6.03125 -1.046875 6.15625 -0.992188 6.25 -0.890625 C 6.351562 -0.796875 6.40625 -0.671875 6.40625 -0.515625 C 6.40625 -0.367188 6.351562 -0.242188 6.25 -0.140625 C 6.15625 -0.046875 6.03125 0 5.875 0 Z M 0.890625 0 "/></g></g></g><g fill="#336b87" fill-opacity="1"><g transform="translate(291.043519, 200.416482)"><g><path d="M 1.484375 0.15625 C 1.253906 0.15625 1.070312 0.078125 0.9375 -0.078125 C 0.8125 -0.234375 0.75 -0.40625 0.75 -0.59375 C 0.75 -0.78125 0.8125 -0.953125 0.9375 -1.109375 C 1.070312 -1.265625 1.253906 -1.34375 1.484375 -1.34375 C 1.710938 -1.34375 1.894531 -1.265625 2.03125 -1.109375 C 2.164062 -0.953125 2.234375 -0.78125 2.234375 -0.59375 C 2.234375 -0.40625 2.164062 -0.234375 2.03125 -0.078125 C 1.894531 0.078125 1.710938 0.15625 1.484375 0.15625 Z M 1.484375 0.15625 "/></g></g></g></svg>